<?xml version="1.0" standalone="no"?>
<!DOCTYPE svg PUBLIC "-//W3C//DTD SVG 20010904//EN"
 "http://www.w3.org/TR/2001/REC-SVG-20010904/DTD/svg10.dtd">
<svg version="1.0" xmlns="http://www.w3.org/2000/svg"
 width="1280.000000pt" height="1340.000000pt" viewBox="0 0 1280.000000 1340.000000"
 preserveAspectRatio="xMidYMid meet">
<metadata>
Created by potrace 1.16, written by Peter Selinger 2001-2019
</metadata>
<g transform="translate(0.000000,1340.000000) scale(0.100000,-0.100000)"
fill="#000000" stroke="none">
<path d="M6004 13380 c-146 -47 -271 -162 -494 -455 -171 -224 -246 -306 -303
-334 -39 -19 -46 -19 -102 -6 -76 18 -154 51 -385 163 -206 99 -318 145 -415
167 -78 19 -226 21 -286 5 -126 -34 -247 -138 -311 -270 -51 -105 -80 -209
-138 -493 -70 -345 -102 -421 -189 -448 -23 -7 -186 -14 -431 -19 -359 -6
-402 -9 -475 -29 -255 -68 -386 -218 -402 -461 -8 -115 9 -231 63 -440 87
-336 94 -365 100 -436 6 -59 4 -77 -12 -103 -30 -52 -139 -116 -391 -232 -343
-158 -458 -231 -544 -348 -65 -88 -89 -162 -89 -271 0 -187 71 -319 335 -620
166 -190 229 -270 260 -335 27 -55 27 -56 11 -99 -24 -61 -90 -153 -256 -351
-257 -308 -330 -445 -330 -620 0 -139 45 -239 154 -343 95 -90 194 -146 475
-269 209 -92 332 -155 381 -195 71 -58 67 -130 -25 -499 -56 -222 -75 -339
-75 -459 0 -164 45 -283 140 -374 66 -63 133 -99 238 -129 73 -20 98 -21 482
-22 449 -1 472 -3 526 -60 45 -48 76 -142 139 -424 31 -137 67 -282 80 -321
76 -222 187 -351 349 -402 50 -16 82 -19 176 -15 156 5 251 38 555 193 327
166 422 198 486 164 46 -25 134 -117 252 -265 266 -333 339 -405 486 -478 77
-38 90 -42 182 -45 252 -10 379 86 733 556 104 138 188 226 240 252 38 18 50
19 92 10 58 -13 156 -51 245 -96 37 -18 69 -30 73 -27 3 4 6 105 6 225 l0 219
-52 24 c-101 46 -173 60 -319 60 l-136 0 -89 -44 c-77 -38 -104 -60 -200 -155
-66 -67 -165 -183 -247 -292 -155 -205 -270 -324 -316 -324 -59 0 -145 85
-353 347 -208 261 -326 369 -466 425 -49 19 -75 23 -187 23 -118 0 -139 -3
-220 -30 -49 -16 -211 -89 -359 -163 -277 -137 -362 -172 -423 -174 -76 -3
-110 76 -188 431 -24 112 -56 243 -71 290 -89 293 -222 429 -478 488 -60 14
-136 17 -476 17 -519 1 -500 -6 -487 170 3 44 25 155 47 246 71 284 91 391 97
505 9 184 -34 310 -142 421 -102 104 -199 160 -533 305 -293 128 -382 184
-382 239 0 15 17 54 38 88 35 58 79 114 298 382 211 258 282 428 254 606 -27
165 -92 272 -347 566 -207 238 -263 317 -263 371 0 52 102 118 376 242 394
179 533 277 608 431 76 155 73 320 -9 634 -84 317 -96 369 -101 445 -6 72 -4
83 15 107 12 15 39 33 59 39 24 8 177 14 427 19 424 7 477 13 600 70 86 39
139 81 192 153 89 120 128 233 199 582 50 249 85 368 118 410 45 56 124 35
451 -122 379 -182 462 -208 641 -201 109 4 116 6 201 48 75 37 104 59 199 154
64 64 162 180 234 276 68 91 163 204 211 253 92 93 112 102 167 73 43 -22 157
-147 304 -331 210 -263 320 -364 463 -425 54 -22 73 -25 190 -25 117 0 139 3
220 29 50 17 207 88 350 159 270 134 353 170 419 180 34 6 42 3 70 -26 41 -41
71 -134 130 -397 76 -345 119 -467 204 -580 54 -70 110 -114 197 -156 132 -62
183 -68 630 -69 420 0 453 -3 475 -45 26 -49 4 -207 -66 -480 -108 -416 -97
-608 44 -786 83 -105 212 -183 537 -324 311 -135 405 -193 405 -249 0 -38 -57
-129 -161 -256 -321 -395 -357 -446 -406 -587 -20 -58 -26 -92 -25 -163 0
-188 73 -321 352 -640 189 -215 260 -316 260 -368 0 -50 -104 -119 -352 -232
-71 -32 -128 -61 -128 -64 0 -3 32 -19 70 -34 87 -35 206 -112 277 -180 l55
-51 75 38 c294 152 414 301 414 516 0 184 -77 327 -329 613 -219 248 -284 340
-284 401 0 63 59 149 295 431 235 280 305 427 295 618 -4 73 -10 97 -41 159
-23 47 -56 94 -94 131 -110 109 -189 154 -519 297 -333 145 -404 196 -404 289
0 64 22 178 75 392 59 233 75 332 75 453 0 172 -42 287 -140 380 -66 63 -133
99 -238 129 -73 20 -98 22 -482 22 -288 1 -417 4 -446 13 -109 32 -136 95
-229 515 -25 115 -61 252 -80 304 -96 270 -250 394 -487 394 -162 0 -279 -41
-623 -216 -321 -163 -394 -183 -471 -126 -54 39 -123 115 -239 261 -241 305
-330 392 -474 463 -81 40 -88 42 -190 44 -84 2 -119 -1 -167 -17z"/>
<path d="M5853 11285 c-333 -42 -642 -135 -938 -281 -412 -203 -756 -487
-1034 -854 -293 -388 -478 -831 -558 -1340 -26 -165 -26 -655 0 -820 86 -545
303 -1036 633 -1436 90 -109 270 -290 382 -384 399 -335 881 -553 1423 -642
117 -20 172 -22 434 -23 241 0 323 4 415 18 610 96 1135 346 1560 744 281 264
471 518 634 848 150 303 241 611 281 951 20 169 20 499 0 668 -80 675 -374
1272 -861 1747 -443 431 -975 695 -1604 795 -146 23 -612 28 -767 9z m652
-411 c952 -116 1758 -776 2060 -1689 88 -264 126 -500 126 -785 0 -399 -80
-741 -256 -1095 -204 -413 -487 -734 -870 -990 -222 -147 -561 -291 -825 -349
-351 -77 -731 -77 -1080 0 -247 55 -535 171 -759 306 -491 297 -883 790 -1066
1343 -88 265 -125 496 -125 785 0 112 6 237 15 307 179 1371 1413 2333 2780
2167z"/>
<path d="M6089 9771 c-43 -27 -54 -44 -197 -322 -83 -162 -167 -329 -188 -371
-30 -61 -44 -78 -64 -82 -14 -3 -189 -28 -390 -56 -402 -55 -430 -61 -478 -97
-64 -48 -91 -155 -61 -242 8 -22 107 -123 313 -319 257 -245 301 -290 298
-312 -2 -14 -33 -194 -69 -400 -60 -341 -65 -378 -54 -420 16 -59 52 -105 103
-131 33 -17 54 -20 107 -17 63 4 84 14 429 191 l363 186 362 -186 c344 -177
365 -187 428 -191 81 -5 135 19 179 79 49 68 48 89 -24 494 -36 204 -66 381
-68 395 -3 22 41 67 296 309 188 179 303 296 312 317 35 83 8 197 -59 248 -46
35 -76 41 -505 101 -211 29 -385 55 -387 57 -1 2 -44 86 -95 188 -51 102 -135
268 -188 369 -87 167 -100 187 -141 213 -38 23 -56 28 -111 28 -56 0 -73 -5
-111 -29z m369 -1103 c20 -21 50 -42 66 -48 17 -5 138 -25 269 -44 131 -19
241 -36 243 -39 2 -2 -72 -75 -164 -163 -93 -87 -179 -174 -192 -192 -38 -54
-37 -120 5 -358 20 -115 39 -219 42 -231 4 -19 -28 -6 -230 97 -315 161 -280
161 -594 0 -203 -105 -233 -117 -228 -98 24 111 75 437 75 485 0 81 -16 103
-223 298 -92 87 -165 160 -163 163 3 2 111 19 242 38 130 18 251 38 269 44 59
19 94 69 197 274 55 110 107 211 116 224 16 24 17 21 125 -194 68 -137 122
-233 145 -256z"/>
<path d="M9855 6793 c-55 -11 -146 -50 -201 -85 -112 -70 -201 -188 -249 -329
-27 -78 -29 -95 -29 -239 -1 -178 15 -135 -155 -412 -94 -153 -97 -158 -143
-173 -47 -16 -48 -16 -105 12 l-58 28 -315 0 -315 0 -60 -29 c-77 -38 -153
-114 -191 -191 l-29 -60 0 -715 0 -715 29 -60 c38 -77 114 -153 191 -191 l60
-29 293 -3 c323 -3 352 0 440 59 40 27 50 29 138 29 82 0 101 -3 147 -26 131
-67 90 -64 845 -64 762 0 744 -1 877 68 88 46 180 137 228 223 38 68 77 197
77 255 0 19 13 53 30 81 46 74 72 159 77 248 3 60 11 96 33 145 40 90 60 173
60 251 0 46 7 81 22 115 35 80 48 144 48 239 0 166 -49 286 -164 401 -78 78
-177 133 -274 153 -29 6 -152 11 -272 11 l-219 0 6 83 c6 96 -23 293 -63 413
-86 265 -255 440 -481 498 -57 15 -226 20 -278 9z m225 -428 c82 -43 140 -158
175 -349 14 -74 15 -102 5 -168 -14 -98 -61 -290 -94 -387 -15 -41 -26 -76
-26 -78 0 -2 210 -3 466 -3 453 0 467 -1 503 -21 58 -33 76 -65 76 -134 0 -47
-5 -67 -23 -93 -27 -37 -88 -72 -127 -72 -14 0 -25 -2 -25 -3 0 -2 17 -22 38
-44 44 -46 72 -99 72 -137 0 -70 -70 -151 -140 -162 -22 -4 -40 -9 -40 -11 0
-3 14 -21 31 -41 88 -100 74 -229 -31 -282 -22 -11 -51 -20 -65 -20 -31 0 -31
-1 -1 -48 32 -48 50 -122 42 -167 -8 -40 -55 -99 -97 -121 -24 -12 -128 -14
-662 -14 l-633 0 -70 42 c-65 40 -74 43 -156 46 l-88 4 0 531 0 532 92 30 91
30 70 110 c142 226 241 393 284 480 l44 90 -2 170 c-2 157 -1 173 20 212 23
47 82 92 133 102 37 8 96 -2 138 -24z m-1280 -1765 l0 -600 -195 0 -195 0 0
600 0 600 195 0 195 0 0 -600z"/>
<path d="M2358 3385 c-502 -565 -914 -1036 -928 -1062 -37 -71 -41 -183 -8
-255 35 -76 70 -112 140 -147 101 -51 101 -51 954 137 l761 168 7 -135 c3 -74
6 -294 7 -490 0 -196 4 -455 8 -576 6 -198 9 -224 28 -261 35 -67 70 -101 135
-133 108 -54 250 -39 337 35 22 20 451 581 952 1247 502 667 916 1217 921
1224 6 8 -37 57 -138 157 -121 120 -149 143 -158 131 -6 -9 -384 -512 -841
-1118 l-830 -1103 -7 591 c-8 741 -8 742 -37 788 -35 57 -103 92 -176 91 -38
-1 -322 -59 -765 -158 -387 -86 -708 -155 -712 -154 -4 2 307 357 692 790 385
434 700 792 700 796 0 5 -18 63 -39 128 -21 65 -49 165 -62 222 -13 56 -26
102 -30 102 -5 0 -414 -457 -911 -1015z"/>
<path d="M6995 3325 c-26 -30 -91 -91 -146 -136 -85 -71 -97 -84 -86 -98 236
-324 1793 -2380 1827 -2412 60 -57 120 -79 215 -79 119 0 212 57 267 164 27
52 36 224 38 796 2 217 5 456 9 530 l6 136 755 -168 c858 -189 857 -189 961
-135 70 36 128 102 148 167 6 20 11 69 11 108 0 57 -5 79 -27 121 -16 29 -180
222 -373 441 l-345 389 -272 0 c-150 1 -273 -1 -273 -3 0 -2 155 -178 345
-392 190 -213 343 -389 341 -391 -2 -2 -334 68 -737 157 -573 126 -743 160
-775 155 -59 -8 -127 -55 -150 -101 -22 -46 -22 -44 -32 -819 l-7 -550 -818
1088 c-450 598 -822 1087 -827 1087 -5 0 -30 -25 -55 -55z"/>
</g>
</svg>
