<svg xmlns:dc="http://purl.org/dc/elements/1.1/" xmlns:cc="http://creativecommons.org/ns#" xmlns:rdf="http://www.w3.org/1999/02/22-rdf-syntax-ns#" xmlns:svg="http://www.w3.org/2000/svg" xmlns="http://www.w3.org/2000/svg" xmlns:sodipodi="http://sodipodi.sourceforge.net/DTD/sodipodi-0.dtd" xmlns:inkscape="http://www.inkscape.org/namespaces/inkscape" viewBox="0 0 26.458333 33.0729175" version="1.1" x="0px" y="0px"><g transform="translate(131.02975,-196.70833)"><path d="m -124.46119,197.23689 a 0.26646272,0.26646272 0 0 0 -0.004,1.9e-4 0.26646272,0.26646272 0 0 0 -0.003,-7e-5 0.26646272,0.26646272 0 0 0 -0.008,5.7e-4 0.26646272,0.26646272 0 0 0 -0.0154,0.001 0.26646272,0.26646272 0 0 0 -0.0115,0.002 0.26646272,0.26646272 0 0 0 -0.0154,0.003 0.26646272,0.26646272 0 0 0 -0.0154,0.004 0.26646272,0.26646272 0 0 0 -0.0115,0.003 0.26646272,0.26646272 0 0 0 -0.0154,0.008 0.26646272,0.26646272 0 0 0 -0.008,0.003 0.26646272,0.26646272 0 0 0 -0.0154,0.008 0.26646272,0.26646272 0 0 0 -0.008,0.004 0.26646272,0.26646272 0 0 0 -0.0192,0.0115 0.26646272,0.26646272 0 0 0 -0.004,0.003 0.26646272,0.26646272 0 0 0 -0.0154,0.0115 0.26646272,0.26646272 0 0 0 -0.004,0.003 0.26646272,0.26646272 0 0 0 -0.0154,0.0154 l -3.59429,3.59656 a 0.26646272,0.26646272 0 0 0 -0.0192,0.0192 0.26646272,0.26646272 0 0 0 -0.06,0.16859 v 18.70911 c 0,0.75823 0.60974,1.3784 1.36377,1.39557 v 0.0346 c 0,0.76893 0.62698,1.39649 1.39572,1.39649 h 14.19577 c 0.76875,0 1.39576,-0.62752 1.39576,-1.39649 v -9.46963 l 1.03541,1.03572 c 0.37798,0.37798 0.99834,0.37798 1.37628,0 0.37798,-0.37798 0.37798,-0.99853 0,-1.37659 l -2.41169,-2.41242 v -8.95258 c 0,-0.75827 -0.60973,-1.3784 -1.36377,-1.39557 v -0.0346 c 0,-0.76897 -0.62702,-1.39638 -1.39572,-1.39638 z m 0.26635,0.53287 h 11.46438 c 0.48256,0 0.86289,0.38029 0.86289,0.86347 v 0.30023 8.28807 c -0.23056,-0.0962 -0.49119,-0.10008 -0.72421,-0.0115 -0.003,0.001 -0.004,0.002 -0.008,0.003 -0.008,0.003 -0.0154,0.008 -0.0231,0.0115 -0.004,0.002 -0.0115,0.004 -0.0154,0.008 -0.008,0.003 -0.0115,0.004 -0.0192,0.008 -0.0115,0.004 -0.0231,0.0115 -0.0346,0.0154 -4e-5,3e-5 -4e-5,0 -7e-5,0 -0.004,0.002 -0.008,0.004 -0.0115,0.004 -0.004,0.002 -0.008,0.004 -0.0115,0.008 l -0.67876,-0.67895 c 1.57259,-1.76858 1.51193,-4.48601 -0.18245,-6.18096 -0.87886,-0.87913 -2.03286,-1.31854 -3.18677,-1.31854 -1.15393,0 -2.30772,0.43941 -3.18659,1.31854 -0.7371,0.7373 -1.16489,1.66809 -1.28379,2.63009 h -5.23246 a 0.26646272,0.26646272 0 1 0 0,0.53287 h 5.19828 c -0.002,0.35797 0.0385,0.71566 0.12086,1.06562 h -5.31918 a 0.26646272,0.26646272 0 1 0 0,0.53291 h 5.48008 c 0.13856,0.37375 0.32871,0.7326 0.56955,1.06578 h -6.04963 a 0.26646272,0.26646272 0 1 0 0,0.53287 h 6.5017 c 0.004,0.004 0.008,0.0115 0.0154,0.0154 1.69441,1.69495 4.41113,1.75569 6.17918,0.18284 l 0.67878,0.67898 c -0.004,0.008 -0.008,0.0115 -0.0115,0.0192 -0.0308,0.0566 -0.0531,0.11547 -0.0708,0.17552 -0.052,0.17667 -0.0527,0.36566 -0.003,0.54315 10e-4,0.004 0.002,0.008 0.003,0.0115 10e-4,0.004 0.003,0.008 0.004,0.0154 0.003,0.0115 0.008,0.0192 0.0115,0.0308 0.004,0.0154 0.0115,0.0308 0.0154,0.0443 0,0 3e-5,0 3e-5,4e-5 0.008,0.0154 0.0116,0.0308 0.0193,0.0435 0,0 4e-5,4e-5 4e-5,4e-5 0.008,0.0154 0.0154,0.0269 0.0192,0.0427 0.004,0.008 0.008,0.0154 0.0115,0.0231 0.003,0.008 0.008,0.0115 0.0115,0.0192 0,0 4e-5,0 4e-5,4e-5 0.008,0.0154 0.0154,0.0269 0.0269,0.0408 4e-5,4e-5 4e-5,4e-5 4e-5,4e-5 0.008,0.0115 0.0192,0.0269 0.0269,0.0396 4e-5,4e-5 4e-5,7e-5 4e-5,7e-5 0.008,0.0115 0.0192,0.0269 0.0308,0.0385 0,0 -3e-5,3e-5 0,3e-5 0.0115,0.0115 0.0192,0.0269 0.0308,0.0385 0.0115,0.0115 0.0231,0.0231 0.0308,0.0346 5.8e-4,5.8e-4 0.001,0.001 0.002,0.002 0,4e-5 4e-5,4e-5 4e-5,4e-5 l 1.06558,1.06589 v 4e-5 9.93683 c 0,0.48313 -0.38029,0.86346 -0.86289,0.86346 h -13.96129 -0.23441 c -0.48256,0 -0.86285,-0.38029 -0.86285,-0.86346 v -18.44269 h 2.19852 c 0.76871,0 1.39572,-0.62745 1.39572,-1.39638 z m -0.53286,0.37721 v 1.82293 c 0,0.48314 -0.3803,0.86347 -0.86286,0.86347 h -1.82197 z m 13.39296,1.05916 c 0.46632,0.0192 0.8309,0.3856 0.8309,0.85731 v 8.41951 l -0.8309,-0.8311 z m -5.43154,0.41266 c 1.01639,0 2.03282,0.38853 2.80988,1.16577 1.54495,1.54546 1.55377,4.0374 0.0269,5.59394 a 0.26646275,0.26646275 0 0 0 -0.0547,0.055 c -1.55612,1.52705 -4.04694,1.51816 -5.59185,-0.0269 -1.55411,-1.55457 -1.55411,-4.06703 0,-5.6216 0.77706,-0.77725 1.79344,-1.16578 2.80983,-1.16578 z m 2.63245,2.18294 a 0.26646272,0.26646272 0 0 0 -0.18322,0.0808 l -3.20273,3.20272 -1.69559,-1.69557 a 0.26651167,0.26651167 0 0 0 -0.37683,0.37683 l 1.88401,1.8839 a 0.26646272,0.26646272 0 0 0 0.37682,0 l 3.39121,-3.39121 a 0.26646272,0.26646272 0 0 0 -0.19361,-0.45739 z m 1.88874,5.87283 c 0.11162,4e-5 0.22363,0.0439 0.31139,0.13203 l 3.14887,3.14979 -0.62271,0.6229 -0.64072,-0.64091 a 0.26646272,0.26646272 0 0 0 -5.8e-4,-6.1e-4 l -0.55404,-0.55416 -0.80973,-0.81005 -0.45843,-0.4585 -0.68529,-0.68549 c -0.055,-0.055 -0.0928,-0.11932 -0.11316,-0.18706 0,0 0,-4e-5 0,-4e-5 -0.0115,-0.0408 -0.0192,-0.0828 -0.0192,-0.12433 0,-0.042 0.008,-0.0839 0.0192,-0.12432 0,-4e-5 0,-4e-5 0,-8e-5 0.0192,-0.0677 0.0585,-0.13202 0.11316,-0.18668 0.0878,-0.0878 0.19977,-0.13202 0.31139,-0.13164 z m -14.22402,0.15936 a 0.26646272,0.26646272 0 1 0 0,0.5329 h 6.78688 a 0.26646272,0.26646272 0 1 0 0,-0.5329 z m 0,1.59864 a 0.26646272,0.26646272 0 1 0 0,0.53276 h 6.78688 a 0.26646272,0.26646272 0 1 0 0,-0.53276 z m 10.69216,0.7229 a 0.26646272,0.26646272 0 0 0 -0.0447,0.53071 l 0.38029,0.0512 c -0.15204,0.1505 -0.30715,0.2983 -0.46454,0.44314 -0.42275,0.38915 -0.86381,0.75793 -1.32163,1.10493 -0.91565,0.69399 -1.89798,1.30091 -2.9335,1.81073 -1.03552,0.50977 -2.12416,0.92243 -3.25233,1.22747 -0.56409,0.15243 -1.13814,0.27829 -1.72032,0.37568 a 0.26646275,0.26646275 0 1 0 0.0878,0.52559 c 0.5995,-0.10046 1.19064,-0.22979 1.77147,-0.38687 1.16166,-0.31409 2.28255,-0.73884 3.34864,-1.2637 1.06608,-0.52486 2.07739,-1.14988 3.02003,-1.86431 0.47132,-0.3572 0.9254,-0.73672 1.36065,-1.13741 0.14165,-0.13048 0.28099,-0.26328 0.41871,-0.39807 l -0.0477,0.3545 a 0.26646272,0.26646272 0 1 0 0.52806,0.0712 l 0.12894,-0.9575 a 0.26646272,0.26646272 0 0 0 -0.0608,-0.26829 0.26646272,0.26646272 0 0 0 -0.002,-0.002 0.26646272,0.26646272 0 0 0 -4.2e-4,-4e-4 0.26646272,0.26646272 0 0 0 -0.1886,-0.0835 0.26646272,0.26646272 0 0 0 -0.0115,4e-4 l -0.96943,-0.13048 a 0.26646272,0.26646272 0 0 0 -0.0269,-0.003 z m 4.44221,0.24981 0.35488,0.35488 0.47602,0.47614 v 10.00261 c 0,0.4831 -0.38029,0.86362 -0.86285,0.86362 h -14.19577 c -0.48256,0 -0.86289,-0.38068 -0.86289,-0.86362 v -0.0346 h 13.69489 c 0.0231,0 0.0481,-6.1e-4 0.0716,-0.002 0.73568,-0.0385 1.32409,-0.64965 1.32409,-1.39453 z m -15.13437,0.62578 a 0.26646272,0.26646272 0 1 0 0,0.53291 h 6.78688 a 0.26646272,0.26646272 0 1 0 0,-0.53291 z m 18.06095,0.30216 0.47205,0.4722 c 0.17591,0.17591 0.17591,0.44708 0,0.62287 -0.1759,0.1759 -0.44703,0.1759 -0.62278,0 l -0.47201,-0.47217 z m -8.72194,2.50946 a 0.26657155,0.26657155 0 0 0 -0.26674,0.26674 v 1.4458 h -2.29932 a 0.2668787,0.2668787 0 0 0 -0.26675,0.26674 v 0.87471 h -2.30291 a 0.26505665,0.26505665 0 0 0 -0.2652,0.2652 v 0.87594 h -2.3197 a 0.2581183,0.2581183 0 0 0 -0.25789,0.25827 v 1.15931 a 0.2581183,0.2581183 0 0 0 0.25789,0.25828 h 2.58474 a 0.2581183,0.2581183 0 0 0 0.0115,-6.1e-4 h 2.55773 2.56595 2.5665 a 0.26657155,0.26657155 0 0 0 0.26674,-0.26674 v -5.13667 a 0.26657155,0.26657155 0 0 0 -0.26674,-0.26674 z m 0.26636,0.53298 h 2.03352 v 4.60367 h -2.03321 v -3.15756 a 0.2668787,0.2668787 0 0 0 -2.3e-4,-0.004 z m -2.56564,1.71304 h 2.03227 v 2.89002 h -2.03227 z m -2.57151,1.13772 h 2.03787 v 1.75619 h -2.03787 z m -2.59171,1.12728 h 2.06161 v 0.64322 h -2.06161 z" style="color:#000000;font-style:normal;font-variant:normal;font-weight:normal;font-stretch:normal;font-size:medium;line-height:normal;font-family:sans-serif;font-variant-ligatures:normal;font-variant-position:normal;font-variant-caps:normal;font-variant-numeric:normal;font-variant-alternates:normal;font-feature-settings:normal;text-indent:0;text-align:start;text-decoration:none;text-decoration-line:none;text-decoration-style:solid;text-decoration-color:#000000;letter-spacing:normal;word-spacing:normal;text-transform:none;writing-mode:lr-tb;direction:ltr;text-orientation:mixed;dominant-baseline:auto;baseline-shift:baseline;text-anchor:start;white-space:normal;shape-padding:0;clip-rule:nonzero;display:inline;overflow:visible;visibility:visible;opacity:1;isolation:auto;mix-blend-mode:normal;color-interpolation:sRGB;color-interpolation-filters:linearRGB;solid-color:#000000;solid-opacity:1;vector-effect:none;fill:#000000;fill-opacity:1;fill-rule:nonzero;stroke:none;stroke-width:0.53287214;stroke-linecap:round;stroke-linejoin:round;stroke-miterlimit:4;stroke-dasharray:none;stroke-dashoffset:0;stroke-opacity:1;paint-order:fill markers stroke;color-rendering:auto;image-rendering:auto;shape-rendering:auto;text-rendering:auto;enable-background:accumulate"/></g><text x="0" y="41.458334" fill="#000000" font-size="5px" font-weight="bold" font-family="'Helvetica Neue', Helvetica, Arial-Unicode, Arial, Sans-serif">Created by Normansyah</text><text x="0" y="46.458334" fill="#000000" font-size="5px" font-weight="bold" font-family="'Helvetica Neue', Helvetica, Arial-Unicode, Arial, Sans-serif">from the Noun Project</text></svg>