<?xml version="1.0" standalone="no"?>
<!DOCTYPE svg PUBLIC "-//W3C//DTD SVG 20010904//EN"
 "http://www.w3.org/TR/2001/REC-SVG-20010904/DTD/svg10.dtd">
<svg version="1.0" xmlns="http://www.w3.org/2000/svg"
 width="1280.000000pt" height="1380.000000pt" viewBox="0 0 1280.000000 1380.000000"
 preserveAspectRatio="xMidYMid meet">
<metadata>
Created by potrace 1.16, written by Peter Selinger 2001-2019
</metadata>
<g transform="translate(0.000000,1380.000000) scale(0.100000,-0.100000)"
fill="#000000" stroke="none">
<path d="M3690 13223 c-715 -52 -1359 -340 -1869 -837 -522 -510 -828 -1158
-891 -1891 -5 -66 -10 -402 -10 -747 l0 -627 -57 -6 c-168 -18 -258 -59 -363
-165 -81 -80 -125 -157 -151 -260 -12 -46 -14 -424 -14 -2340 l0 -2285 24 -73
c57 -173 195 -311 366 -365 l70 -22 3090 0 c2492 0 3099 2 3139 13 90 24 178
74 251 145 l70 68 80 -31 c237 -92 394 -210 775 -585 163 -159 343 -328 400
-374 302 -243 578 -365 955 -422 44 -6 239 -14 433 -18 l354 -6 27 -87 c174
-539 758 -850 1311 -697 175 48 375 170 500 306 189 207 281 446 281 733 0
185 -32 324 -113 485 -149 297 -422 503 -757 570 -118 24 -363 17 -476 -15
-362 -99 -648 -375 -756 -731 l-21 -69 -226 0 c-400 0 -599 24 -783 95 -260
100 -396 202 -774 580 -143 143 -305 298 -360 343 -201 168 -419 293 -639 368
l-116 39 0 612 0 611 63 -14 c198 -46 364 -123 583 -270 87 -59 195 -132 239
-161 172 -116 448 -234 650 -278 44 -10 83 -21 88 -24 4 -4 16 -40 28 -81 112
-404 485 -702 909 -727 419 -24 795 200 975 579 69 147 90 243 90 428 0 172
-13 245 -68 380 -123 302 -366 514 -688 602 -72 19 -108 23 -249 23 -140 -1
-178 -4 -250 -24 -280 -75 -511 -262 -643 -519 -24 -48 -50 -104 -57 -124 -13
-44 -7 -44 -153 3 -138 45 -265 111 -435 226 -86 59 -200 136 -252 171 -215
144 -483 248 -757 293 l-73 12 0 327 0 328 56 7 c82 10 274 58 379 95 139 49
291 129 447 236 290 199 333 226 428 274 86 43 250 106 321 123 24 6 27 3 57
-76 86 -227 302 -450 529 -546 153 -65 211 -76 408 -75 166 0 187 2 270 28
362 109 628 390 711 751 27 116 25 360 -4 467 -85 313 -301 565 -589 688 -132
56 -230 74 -398 73 -128 0 -164 -4 -245 -25 -52 -14 -126 -40 -164 -57 -271
-123 -488 -379 -563 -664 l-17 -63 -80 -18 c-254 -56 -479 -157 -722 -322
-289 -197 -318 -215 -406 -260 -126 -63 -233 -101 -390 -138 l-28 -6 0 612 0
613 103 33 c125 39 318 132 435 208 163 106 257 188 572 499 352 348 468 443
645 530 126 61 228 97 353 122 73 15 143 18 440 18 l354 0 22 -70 c92 -283
288 -512 549 -639 605 -297 1324 21 1512 669 49 171 52 389 6 567 -63 244
-227 477 -435 617 -599 404 -1409 124 -1631 -564 l-23 -70 -339 -6 c-186 -4
-381 -12 -433 -18 -371 -48 -681 -183 -970 -424 -47 -39 -218 -202 -380 -362
-282 -279 -396 -378 -523 -459 -75 -48 -215 -117 -295 -146 l-62 -23 -40 46
c-85 97 -212 160 -357 179 l-83 11 0 601 c0 330 -5 664 -10 741 -45 610 -262
1168 -640 1645 -98 124 -340 368 -460 464 -401 320 -885 536 -1381 616 -215
34 -484 47 -679 33z m520 -509 c532 -68 1032 -316 1420 -704 75 -74 166 -174
202 -221 291 -376 467 -806 518 -1264 5 -51 10 -377 10 -747 l0 -658 -310 0
-310 0 0 583 c0 612 -7 756 -41 927 -77 383 -296 763 -587 1015 -695 605
-1711 617 -2413 28 -367 -308 -601 -755 -648 -1237 -7 -64 -11 -362 -11 -713
l0 -603 -316 0 -316 0 5 673 c4 559 7 691 21 787 84 572 340 1073 750 1467
193 185 377 313 631 439 290 143 591 221 950 248 84 6 324 -5 445 -20z m-173
-1109 c100 -8 257 -48 361 -91 371 -153 650 -455 777 -837 63 -191 65 -221 65
-924 l0 -633 -1355 0 -1355 0 0 558 c0 605 7 743 45 900 121 502 531 900 1037
1008 86 18 245 33 308 28 25 -2 78 -6 117 -9z m7537 -983 c173 -63 309 -200
368 -370 32 -94 33 -279 0 -366 -69 -188 -224 -332 -412 -381 -73 -19 -207
-19 -284 1 -199 51 -369 220 -421 420 -8 32 -15 97 -15 144 0 47 7 112 15 144
51 195 212 359 410 418 85 25 257 20 339 -10z m-4640 -2024 c12 -20 15 -300
17 -1958 5 -2664 6 -2493 -14 -2524 l-18 -26 -3023 2 c-2958 3 -3024 3 -3045
22 l-21 19 0 2225 c0 2057 1 2227 17 2244 16 17 123 18 3044 18 l3029 0 14
-22z m3276 -378 c178 -52 326 -221 360 -410 23 -125 -10 -265 -89 -376 -243
-346 -763 -275 -908 124 -110 302 95 634 421 682 66 10 135 3 216 -20z m12
-2739 c119 -41 220 -123 285 -233 37 -61 73 -189 73 -257 -1 -242 -198 -470
-440 -511 -276 -47 -550 160 -592 445 -37 262 148 517 417 575 60 13 193 4
257 -19z m1302 -2267 c97 -25 185 -73 259 -143 120 -113 187 -263 187 -418 0
-101 -15 -165 -62 -262 -98 -199 -301 -325 -523 -324 -432 4 -709 458 -515
843 78 155 234 273 415 313 47 11 182 6 239 -9z"/>
<path d="M2060 8146 c-82 -23 -144 -59 -206 -121 -251 -250 -155 -668 182
-786 49 -17 77 -20 169 -17 103 3 115 6 186 40 129 63 228 189 258 326 51 239
-89 481 -320 553 -71 22 -200 24 -269 5z m216 -255 c72 -33 134 -126 134 -203
0 -111 -108 -217 -223 -218 -242 -1 -305 329 -82 426 43 19 123 17 171 -5z"/>
<path d="M3243 8150 c-13 -5 -32 -24 -43 -42 -19 -32 -20 -50 -20 -426 l0
-394 34 -34 34 -34 1477 0 1477 0 34 34 34 34 0 402 0 402 -34 34 -34 34
-1469 -1 c-847 0 -1477 -4 -1490 -9z m2777 -460 l0 -220 -1295 0 -1295 0 0
220 0 220 1295 0 1295 0 0 -220z"/>
<path d="M2060 6816 c-82 -23 -144 -59 -206 -121 -217 -216 -180 -568 78 -735
83 -54 164 -73 284 -68 89 3 107 8 175 41 129 62 228 187 258 325 51 239 -89
481 -320 553 -71 22 -200 24 -269 5z m216 -255 c72 -33 134 -126 134 -203 0
-111 -108 -217 -223 -218 -242 -1 -305 329 -82 426 43 19 123 17 171 -5z"/>
<path d="M3243 6820 c-13 -5 -32 -24 -43 -42 -19 -32 -20 -50 -20 -426 l0
-394 34 -34 34 -34 1477 0 1477 0 34 34 34 34 0 402 0 402 -34 34 -34 34
-1469 -1 c-847 0 -1477 -4 -1490 -9z m2777 -460 l0 -220 -1295 0 -1295 0 0
220 0 220 1295 0 1295 0 0 -220z"/>
<path d="M2060 5486 c-82 -23 -144 -59 -206 -121 -251 -250 -154 -669 182
-785 121 -42 282 -24 398 44 59 35 147 132 178 197 124 263 -9 575 -283 660
-71 22 -200 24 -269 5z m216 -255 c72 -33 134 -126 134 -203 0 -111 -108 -217
-223 -218 -242 -1 -305 329 -82 426 43 19 123 17 171 -5z"/>
<path d="M3243 5490 c-13 -5 -32 -24 -43 -42 -19 -32 -20 -50 -20 -425 l0
-393 28 -30 c16 -19 43 -35 67 -40 53 -13 2847 -13 2900 0 24 5 51 21 68 40
l27 30 0 401 0 401 -34 34 -34 34 -1469 -1 c-847 0 -1477 -4 -1490 -9z m2777
-460 l0 -220 -1295 0 -1295 0 0 220 0 220 1295 0 1295 0 0 -220z"/>
</g>
</svg>
