<?xml version="1.0" standalone="no"?>
<!DOCTYPE svg PUBLIC "-//W3C//DTD SVG 20010904//EN"
 "http://www.w3.org/TR/2001/REC-SVG-20010904/DTD/svg10.dtd">
<svg version="1.0" xmlns="http://www.w3.org/2000/svg"
 width="1280.000000pt" height="1295.000000pt" viewBox="0 0 1280.000000 1295.000000"
 preserveAspectRatio="xMidYMid meet">
<metadata>
Created by potrace 1.16, written by Peter Selinger 2001-2019
</metadata>
<g transform="translate(0.000000,1295.000000) scale(0.100000,-0.100000)"
fill="#000000" stroke="none">
<path d="M6325 12356 c-16 -8 -68 -51 -115 -96 -843 -813 -1934 -1429 -2980
-1683 -350 -85 -668 -130 -1061 -150 -251 -12 -257 -13 -296 -39 -25 -17 -49
-44 -63 -74 l-23 -47 6 -361 c28 -1590 319 -3103 862 -4475 478 -1210 1140
-2291 1974 -3226 143 -161 536 -556 692 -697 272 -245 608 -509 854 -673 212
-140 239 -140 451 1 248 165 582 428 853 672 165 149 554 541 705 712 1383
1558 2286 3512 2650 5735 109 663 176 1460 176 2088 0 206 -2 231 -20 266 -22
44 -64 82 -106 98 -16 6 -135 16 -264 22 -265 12 -427 29 -677 71 -1149 193
-2340 814 -3326 1734 -59 56 -122 109 -140 118 -38 21 -111 22 -152 4z m213
-609 c714 -638 1572 -1140 2427 -1421 499 -164 943 -251 1459 -288 l169 -11
-7 -211 c-53 -1668 -366 -3146 -961 -4546 -102 -240 -356 -759 -479 -978 -356
-633 -774 -1228 -1232 -1752 -152 -174 -641 -663 -809 -810 -254 -221 -669
-539 -704 -540 -7 0 -61 35 -120 77 -1029 747 -1922 1776 -2616 3013 -110 197
-350 678 -440 880 -625 1418 -957 2942 -1011 4641 l-7 216 124 6 c347 18 757
85 1144 189 980 261 1989 817 2777 1527 79 71 144 130 146 130 1 1 64 -54 140
-122z"/>
<path d="M6273 10089 c-624 -57 -1137 -541 -1239 -1168 -10 -64 -14 -196 -14
-512 l0 -426 -127 -6 c-256 -12 -425 -86 -585 -255 -75 -80 -128 -162 -164
-258 -55 -144 -53 -101 -54 -1704 0 -967 4 -1508 10 -1550 42 -264 206 -485
444 -600 169 -81 8 -74 1796 -78 1151 -2 1617 0 1675 8 315 45 576 282 655
596 20 79 20 102 18 1644 l-3 1565 -31 87 c-119 332 -387 526 -751 545 l-123
6 0 437 c0 339 -3 456 -15 521 -75 433 -339 794 -727 999 -223 117 -507 173
-765 149z m246 -409 c224 -29 426 -132 587 -302 121 -128 194 -260 242 -437
25 -95 25 -102 30 -528 l4 -433 -982 0 -982 0 4 433 c5 426 5 433 30 528 92
343 336 600 668 703 137 43 256 53 399 36z m1421 -2130 c146 -19 264 -102 323
-228 l32 -67 0 -1516 0 -1515 -38 -76 c-59 -120 -162 -197 -293 -218 -79 -13
-3048 -13 -3127 0 -133 21 -234 96 -294 218 l-38 76 0 1515 0 1516 32 67 c59
125 174 210 306 227 91 12 3006 12 3097 1z"/>
<path d="M6271 6534 c-65 -24 -112 -56 -164 -113 -68 -76 -91 -143 -91 -266 0
-88 3 -107 27 -160 16 -33 37 -69 47 -80 19 -20 18 -24 -75 -318 -81 -255 -95
-307 -95 -365 1 -117 46 -180 176 -242 91 -44 183 -62 309 -62 172 0 291 36
394 120 57 47 81 99 81 184 0 58 -14 110 -94 364 l-94 296 29 45 c69 109 85
260 40 375 -30 77 -107 161 -185 201 -54 27 -72 31 -161 34 -73 2 -112 -1
-144 -13z"/>
</g>
</svg>
