<?xml version="1.0" standalone="no"?>
<!DOCTYPE svg PUBLIC "-//W3C//DTD SVG 20010904//EN"
 "http://www.w3.org/TR/2001/REC-SVG-20010904/DTD/svg10.dtd">
<svg version="1.0" xmlns="http://www.w3.org/2000/svg"
 width="1280.000000pt" height="1270.000000pt" viewBox="0 0 1280.000000 1270.000000"
 preserveAspectRatio="xMidYMid meet">
<metadata>
Created by potrace 1.16, written by Peter Selinger 2001-2019
</metadata>
<g transform="translate(0.000000,1270.000000) scale(0.100000,-0.100000)"
fill="#000000" stroke="none">
<path d="M6325 12076 c-37 -16 -70 -52 -84 -89 -6 -16 -11 -100 -11 -192 l0
-164 -602 -3 c-552 -3 -608 -5 -658 -22 -230 -76 -395 -246 -450 -462 -19 -73
-20 -112 -20 -656 0 -319 -3 -578 -7 -576 -5 2 -57 36 -118 77 -265 177 -579
296 -915 347 -157 24 -473 24 -628 1 -915 -141 -1635 -796 -1847 -1682 -52
-215 -57 -273 -62 -745 l-5 -445 -62 -30 c-83 -40 -192 -149 -234 -235 -152
-310 -15 -718 293 -877 l72 -37 6 -190 c3 -126 12 -232 26 -311 65 -373 217
-711 451 -1005 143 -180 396 -401 577 -504 l72 -41 1 -325 0 -326 -605 -258
c-332 -142 -630 -274 -662 -293 -299 -179 -507 -469 -584 -813 -17 -79 -19
-136 -19 -846 l0 -761 23 -34 c12 -19 38 -42 57 -51 33 -17 193 -18 2905 -18
2774 0 2871 1 2905 19 19 10 45 33 58 51 l22 33 0 703 0 704 2898 2 2897 3 80
27 c115 39 197 92 279 179 82 87 126 163 155 269 l21 75 0 4250 c0 4702 6
4296 -65 4440 -61 125 -164 229 -290 293 -134 67 -122 66 -647 70 l-478 3 0
166 c0 200 -12 238 -84 272 l-42 21 -2295 0 c-1889 -1 -2299 -3 -2324 -14z
m4435 -571 l0 -275 -2110 0 -2110 0 0 275 0 275 2110 0 2110 0 0 -275z m-4530
-322 c0 -162 14 -205 79 -241 l39 -22 2302 0 2302 0 39 22 c65 36 79 79 79
241 l0 137 435 0 c419 0 437 -1 501 -22 48 -16 81 -35 121 -71 69 -64 101
-126 114 -225 6 -51 9 -1466 7 -4232 l-3 -4155 -23 -57 c-32 -80 -99 -150
-180 -190 l-67 -33 -2901 -3 -2901 -2 -23 62 c-93 256 -284 489 -521 634 -35
22 -233 111 -439 199 l-375 161 -3 658 -2 658 35 39 c111 123 255 355 333 536
121 282 182 583 182 898 l0 111 53 26 c332 164 471 574 305 903 -56 109 -181
213 -310 254 l-38 13 0 416 c0 302 -4 446 -14 522 -58 425 -218 795 -492 1131
l-54 66 0 711 c0 693 1 713 21 766 24 66 96 149 153 178 90 46 92 47 684 47
l562 1 0 -137z m-2790 -1158 c280 -46 539 -148 771 -303 116 -78 243 -183 280
-231 13 -18 58 -67 99 -109 171 -174 327 -462 405 -748 58 -211 66 -301 72
-765 l6 -416 -74 -7 c-41 -3 -164 -9 -274 -12 -641 -20 -1278 108 -1778 357
-111 56 -270 149 -264 155 2 2 82 17 178 33 702 118 1293 341 1704 643 81 60
105 97 105 164 0 68 -30 112 -93 138 -65 27 -111 14 -218 -63 -470 -336 -1171
-554 -2049 -637 -96 -9 -324 -19 -507 -23 -316 -6 -333 -7 -360 -27 -62 -47
-64 -53 -89 -461 -12 -206 -25 -377 -27 -379 -3 -3 -25 5 -51 18 l-46 22 0
405 c0 429 7 561 41 731 78 395 307 792 607 1055 298 261 680 430 1073 474
112 13 371 5 489 -14z m-1142 -2193 c390 -306 868 -518 1417 -627 296 -59 566
-85 880 -85 264 0 594 26 690 55 36 11 124 -53 159 -115 28 -49 31 -64 31
-140 0 -75 -4 -93 -31 -150 -49 -103 -146 -184 -244 -205 -63 -13 -109 -43
-130 -85 -18 -35 -20 -59 -20 -219 0 -98 -5 -225 -10 -282 -66 -646 -444
-1199 -1022 -1495 -723 -369 -1604 -225 -2175 357 -157 160 -267 315 -353 494
-137 288 -190 536 -190 900 0 113 -4 205 -11 222 -18 47 -60 83 -119 100 -129
37 -214 104 -266 209 -26 52 -29 70 -29 149 0 77 4 98 25 139 14 27 42 62 62
79 l36 29 39 -30 c21 -16 105 -64 186 -106 137 -70 153 -76 209 -76 108 0 182
64 194 167 3 26 16 210 28 408 l21 360 200 5 c110 3 231 7 268 8 l68 2 87 -68z
m2202 -3866 l0 -445 -75 32 -75 31 0 361 0 361 73 51 c39 29 73 52 75 52 1 1
2 -199 2 -443z m-460 -90 l0 -264 -137 -45 c-234 -76 -425 -107 -670 -107
-245 0 -441 32 -681 112 l-122 40 0 240 c0 225 1 240 17 233 48 -18 237 -67
327 -84 374 -72 822 -33 1172 103 49 19 90 35 92 35 1 1 2 -118 2 -263z
m-1508 -626 c131 -39 318 -76 462 -91 150 -15 472 -7 616 16 137 22 341 74
456 118 l92 34 634 -271 c407 -174 659 -287 703 -316 189 -123 342 -340 395
-561 19 -80 20 -117 20 -721 l0 -638 -2680 0 -2680 0 0 598 c0 635 4 695 50
832 71 212 229 409 410 513 30 17 336 151 679 298 l624 266 61 -24 c34 -13
105 -37 158 -53z"/>
<path d="M7080 10053 c-731 -55 -1333 -571 -1496 -1283 -83 -366 -39 -757 126
-1094 225 -461 647 -788 1158 -896 128 -27 392 -37 528 -20 636 79 1169 513
1369 1113 65 195 79 287 79 522 1 236 -9 309 -70 505 -134 431 -431 779 -840
983 -258 129 -570 191 -854 170z m352 -328 c407 -71 780 -349 963 -720 108
-218 140 -357 140 -605 0 -190 -12 -269 -64 -423 -154 -453 -529 -787 -1004
-892 -115 -26 -354 -31 -478 -11 -435 72 -807 347 -997 738 -189 388 -185 815
9 1201 231 456 729 751 1235 731 61 -2 149 -11 196 -19z"/>
<path d="M7885 9089 c-11 -6 -246 -237 -522 -513 l-503 -501 -172 172 c-95 95
-186 177 -201 183 -42 15 -76 12 -124 -11 -70 -34 -101 -119 -73 -196 14 -37
466 -491 507 -509 43 -19 97 -18 136 2 42 21 1110 1085 1148 1143 72 111 4
241 -126 241 -27 0 -59 -5 -70 -11z"/>
<path d="M9295 9676 c-96 -42 -122 -177 -48 -248 40 -38 74 -48 160 -48 131 0
188 47 188 155 0 70 -24 113 -79 139 -42 20 -177 21 -221 2z"/>
<path d="M10020 9671 c-56 -30 -75 -63 -75 -134 0 -48 5 -69 22 -93 47 -66 31
-64 659 -64 553 0 569 1 610 21 47 22 84 82 84 134 0 52 -37 112 -84 134 -41
20 -57 21 -612 21 -535 0 -571 -1 -604 -19z"/>
<path d="M9295 8426 c-69 -30 -106 -109 -85 -185 12 -47 66 -98 112 -106 18
-3 286 -5 595 -3 549 3 562 3 589 24 51 38 68 70 68 129 0 59 -17 91 -68 129
-27 21 -39 21 -604 23 -464 2 -583 0 -607 -11z"/>
<path d="M11005 8426 c-124 -54 -119 -237 8 -285 50 -19 175 -14 223 10 47 22
84 82 84 134 0 52 -37 112 -84 134 -50 25 -182 29 -231 7z"/>
<path d="M8970 7138 c-94 -63 -92 -191 3 -262 27 -20 43 -21 250 -24 215 -3
223 -2 267 20 104 53 116 192 22 263 -25 18 -45 20 -267 23 -237 3 -241 3
-275 -20z"/>
<path d="M9990 7141 c-51 -27 -84 -96 -75 -156 9 -63 66 -121 127 -130 24 -3
298 -5 610 -3 554 3 567 3 594 24 52 38 69 71 69 132 0 44 -5 65 -24 91 -45
62 -31 61 -678 61 -555 0 -590 -1 -623 -19z"/>
<path d="M6060 5523 c-52 -27 -80 -75 -80 -138 0 -63 28 -111 80 -138 32 -16
73 -17 507 -15 462 3 472 3 500 24 41 31 66 80 66 129 0 49 -25 98 -66 129
-28 21 -38 21 -500 24 -434 2 -475 1 -507 -15z"/>
<path d="M7565 5526 c-103 -46 -124 -181 -40 -255 43 -37 77 -44 199 -39 77 2
100 7 123 24 88 66 88 192 0 258 -24 18 -45 21 -140 24 -78 1 -121 -2 -142
-12z"/>
<path d="M8225 5526 c-42 -18 -83 -69 -91 -112 -14 -77 44 -166 118 -179 18
-3 493 -4 1055 -3 1014 3 1022 3 1049 24 43 31 65 67 71 112 8 57 -25 121 -76
150 l-39 22 -1028 0 c-833 -1 -1035 -3 -1059 -14z"/>
<path d="M10721 5522 c-56 -28 -76 -64 -76 -137 0 -73 18 -106 75 -136 31 -17
60 -19 254 -19 201 0 223 2 262 21 47 22 84 82 84 134 0 48 -36 109 -79 133
-37 21 -51 22 -262 22 -194 0 -229 -2 -258 -18z"/>
<path d="M6060 4023 c-108 -55 -108 -217 0 -275 33 -17 72 -18 897 -16 858 3
862 3 890 24 43 32 67 81 67 136 0 52 -19 86 -68 122 -27 21 -36 21 -889 24
-805 2 -864 1 -897 -15z"/>
<path d="M8351 4022 c-50 -25 -74 -63 -78 -124 -6 -70 19 -115 77 -145 44 -23
48 -23 480 -23 432 0 436 0 480 23 108 55 108 215 0 269 -32 16 -76 18 -480
18 -404 0 -448 -2 -479 -18z"/>
<path d="M9590 4022 c-108 -54 -108 -216 0 -273 53 -29 191 -27 250 4 108 55
108 215 0 269 -26 13 -59 18 -125 18 -66 0 -99 -5 -125 -18z"/>
<path d="M10227 4018 c-49 -29 -82 -94 -74 -150 6 -45 28 -81 71 -112 27 -20
41 -21 498 -24 460 -3 471 -2 514 18 48 24 84 83 84 139 0 51 -35 108 -80 131
-38 19 -58 20 -507 20 -462 0 -468 -1 -506 -22z"/>
</g>
</svg>
