<?xml version="1.0" standalone="no"?>
<!DOCTYPE svg PUBLIC "-//W3C//DTD SVG 20010904//EN"
 "http://www.w3.org/TR/2001/REC-SVG-20010904/DTD/svg10.dtd">
<svg version="1.0" xmlns="http://www.w3.org/2000/svg"
 width="1280.000000pt" height="1280.000000pt" viewBox="0 0 1280.000000 1280.000000"
 preserveAspectRatio="xMidYMid meet">
<metadata>
Created by potrace 1.16, written by Peter Selinger 2001-2019
</metadata>
<g transform="translate(0.000000,1280.000000) scale(0.100000,-0.100000)"
fill="#000000" stroke="none">
<path d="M8256 12225 c-76 -31 -122 -68 -168 -136 -51 -73 -63 -130 -97 -479
-21 -206 -34 -297 -43 -303 -230 -137 -274 -159 -298 -149 -14 5 -155 67 -315
138 l-290 129 -95 0 c-86 0 -101 -3 -160 -31 -36 -17 -84 -51 -108 -75 -47
-48 -730 -1203 -764 -1292 -16 -41 -19 -71 -16 -142 3 -78 8 -100 35 -155 18
-36 46 -78 62 -94 17 -17 149 -113 293 -215 l262 -186 0 -160 0 -160 -261
-185 c-144 -102 -276 -198 -293 -215 -17 -16 -45 -59 -63 -95 -27 -55 -32 -77
-35 -155 -3 -71 0 -101 16 -141 33 -89 717 -1245 764 -1293 24 -24 72 -58 108
-75 59 -28 74 -31 160 -31 l95 0 313 139 313 139 37 -22 c20 -12 85 -49 144
-82 101 -57 107 -63 112 -97 3 -20 17 -156 31 -302 15 -146 33 -292 41 -325
27 -114 116 -212 229 -254 55 -21 70 -21 810 -21 739 0 755 0 810 21 116 43
202 141 230 260 8 35 28 197 44 359 21 206 34 297 43 303 230 137 274 159 298
149 14 -5 156 -67 315 -138 l290 -129 95 0 c86 0 101 3 160 31 36 17 84 51
108 75 48 49 730 1203 764 1292 16 41 19 71 16 142 -3 78 -8 100 -35 155 -18
36 -46 79 -63 95 -17 16 -149 113 -293 215 l-261 186 0 159 0 159 261 186
c144 102 276 199 293 215 17 16 45 59 63 95 27 55 32 77 35 155 3 71 0 101
-16 142 -34 89 -717 1244 -764 1292 -24 24 -72 58 -108 75 -59 28 -74 31 -160
31 l-95 0 -313 -139 -313 -139 -37 22 c-20 12 -85 49 -144 82 -101 57 -107 63
-112 97 -3 20 -17 156 -31 302 -15 146 -33 292 -41 325 -27 114 -116 212 -229
254 -55 21 -70 21 -813 21 l-757 0 -59 -25z m1177 -995 c20 -197 33 -284 48
-325 28 -76 109 -162 185 -197 290 -132 355 -168 499 -277 93 -71 171 -101
259 -101 85 0 111 9 379 127 131 58 240 103 242 101 2 -1 75 -125 163 -275
145 -246 158 -273 143 -286 -9 -7 -107 -78 -218 -156 -209 -146 -256 -191
-295 -277 -27 -59 -30 -160 -10 -358 11 -107 11 -153 0 -260 -20 -200 -17
-301 10 -360 39 -86 86 -131 295 -277 111 -78 209 -149 218 -156 15 -13 2 -40
-143 -286 -88 -150 -161 -274 -163 -275 -2 -2 -117 47 -257 109 -242 107 -257
112 -335 117 -100 6 -171 -14 -246 -69 -192 -141 -258 -178 -536 -305 -81 -37
-161 -120 -190 -199 -15 -41 -28 -128 -48 -325 l-27 -270 -331 0 -331 0 -27
270 c-32 316 -42 351 -123 439 -42 46 -71 66 -131 92 -164 72 -311 150 -397
211 -48 35 -108 77 -133 94 -68 49 -140 67 -236 62 -79 -5 -93 -10 -335 -118
-139 -62 -254 -111 -256 -109 -3 2 -76 127 -165 277 l-160 273 220 155 c225
160 272 204 311 290 27 60 30 164 10 360 -11 107 -11 153 0 260 20 194 17 298
-10 358 -39 86 -86 130 -311 290 l-220 155 160 273 c89 150 162 275 165 277 2
2 110 -44 241 -102 131 -58 256 -110 278 -116 114 -31 241 0 355 85 155 117
213 149 499 280 81 37 161 120 190 199 15 41 28 128 48 325 l27 270 331 0 331
0 27 -270z"/>
<path d="M8820 10181 c-356 -79 -632 -295 -786 -616 -152 -317 -152 -667 1
-981 149 -306 408 -518 740 -605 79 -21 112 -24 275 -24 157 0 198 3 271 22
694 176 1055 939 748 1582 -61 130 -121 214 -224 316 -139 140 -329 248 -519
297 -119 30 -388 35 -506 9z m398 -781 c75 -39 135 -103 170 -180 35 -75 37
-199 4 -280 -30 -75 -97 -149 -174 -191 -60 -33 -67 -34 -168 -34 -101 0 -108
1 -168 34 -75 41 -135 105 -170 181 -22 46 -26 69 -26 145 0 104 24 168 89
243 75 86 165 123 290 119 80 -3 97 -7 153 -37z"/>
<path d="M5375 11173 c-638 -148 -1136 -355 -1635 -681 -297 -194 -537 -388
-790 -642 -468 -468 -831 -1012 -1071 -1607 -29 -73 -56 -133 -59 -133 -3 0
-54 72 -114 160 -60 89 -113 163 -117 166 -8 5 -629 -413 -629 -422 0 -8 712
-1049 734 -1073 85 -94 250 -143 371 -110 34 9 1215 457 1223 464 7 6 -263
698 -274 702 -6 2 -113 -35 -238 -82 -125 -48 -230 -85 -233 -82 -8 9 122 308
195 447 371 709 937 1300 1624 1696 236 136 529 265 788 349 124 40 374 105
402 105 11 0 18 7 18 18 0 9 -33 177 -73 372 -76 368 -74 364 -122 353z"/>
<path d="M2906 6875 c-76 -31 -122 -68 -168 -136 -51 -73 -62 -128 -93 -439
-14 -146 -28 -282 -31 -302 -5 -34 -11 -40 -112 -97 -59 -33 -123 -70 -144
-82 l-36 -22 -298 132 c-164 73 -320 137 -348 143 -117 25 -261 -18 -344 -103
-47 -48 -730 -1203 -764 -1292 -16 -41 -19 -71 -16 -142 3 -78 8 -100 35 -155
18 -36 46 -78 62 -94 17 -17 149 -113 293 -215 l262 -186 0 -160 0 -160 -261
-185 c-144 -102 -276 -198 -293 -215 -17 -16 -45 -59 -63 -95 -27 -55 -32 -77
-35 -155 -3 -71 0 -101 16 -141 33 -89 717 -1245 764 -1293 24 -24 72 -58 108
-75 59 -28 74 -31 160 -31 l95 0 314 139 c283 126 315 138 335 126 11 -7 75
-44 140 -81 65 -38 121 -70 123 -73 2 -2 19 -149 38 -327 19 -181 41 -344 50
-369 34 -98 118 -181 221 -220 53 -19 75 -20 812 -20 l757 0 57 24 c102 42
179 121 214 218 8 24 30 189 49 367 19 178 36 325 38 327 2 3 58 35 123 73 65
37 129 74 140 81 20 12 52 0 335 -126 l314 -139 95 0 c86 0 101 3 160 31 36
17 84 51 108 75 47 48 731 1204 764 1293 16 40 19 70 16 141 -3 78 -8 100 -35
155 -18 36 -46 79 -63 95 -17 16 -149 113 -293 215 l-261 186 0 159 0 159 261
186 c144 102 276 199 293 215 17 16 45 59 63 95 27 55 32 77 35 155 3 71 0
101 -16 142 -34 89 -717 1244 -764 1292 -84 85 -227 128 -346 102 -28 -6 -184
-70 -347 -142 l-297 -132 -36 22 c-20 12 -85 49 -144 82 -101 57 -107 63 -112
97 -3 20 -17 156 -31 302 -15 146 -33 292 -41 325 -27 114 -116 212 -229 254
-55 21 -70 21 -813 21 l-757 0 -59 -25z m1177 -995 c20 -197 33 -284 48 -325
29 -79 109 -162 190 -199 276 -126 361 -175 531 -302 89 -66 218 -92 323 -63
22 6 147 58 279 117 192 85 240 103 247 91 204 -343 315 -535 313 -540 -2 -4
-101 -75 -219 -159 -221 -156 -268 -199 -307 -286 -27 -59 -30 -160 -10 -358
11 -107 11 -153 0 -260 -20 -200 -17 -301 10 -360 39 -87 86 -130 307 -286
118 -84 217 -155 219 -159 2 -5 -109 -198 -313 -540 -7 -12 -58 8 -262 99
-243 108 -257 113 -336 118 -100 5 -171 -14 -246 -69 -192 -141 -258 -178
-536 -305 -81 -37 -161 -120 -190 -199 -15 -41 -28 -128 -48 -325 l-27 -270
-331 0 -331 0 -27 270 c-32 316 -42 351 -123 439 -42 46 -71 66 -131 92 -151
66 -322 157 -403 215 -156 112 -171 122 -226 139 -41 13 -77 16 -137 13 -79
-5 -93 -10 -335 -118 -139 -62 -254 -111 -256 -109 -3 2 -76 127 -165 277
l-160 273 220 155 c225 160 272 204 311 290 27 60 30 164 10 360 -11 107 -11
153 0 260 20 194 17 298 -10 358 -39 86 -86 130 -311 290 l-220 155 160 273
c89 150 162 275 165 277 2 2 110 -44 241 -102 131 -58 256 -110 278 -116 114
-31 241 0 355 85 155 117 213 149 499 280 81 37 161 120 190 199 15 41 28 128
48 325 l27 270 331 0 331 0 27 -270z"/>
<path d="M3490 4830 c-212 -45 -392 -142 -553 -299 -167 -163 -279 -368 -321
-591 -21 -107 -21 -323 0 -430 42 -223 154 -428 321 -591 222 -216 476 -319
787 -319 141 0 218 11 336 46 169 52 316 140 453 273 167 163 279 368 321 591
21 107 21 323 0 430 -42 223 -154 428 -321 591 -167 163 -356 262 -576 304
-111 21 -337 19 -447 -5z m394 -774 c67 -33 140 -106 174 -176 24 -49 27 -66
27 -155 0 -89 -3 -106 -27 -155 -34 -70 -107 -143 -175 -176 -179 -88 -400 -9
-491 176 -24 49 -27 66 -27 155 0 89 3 106 27 155 91 185 312 264 492 176z"/>
<path d="M10705 5972 c-97 -35 -1185 -546 -1185 -556 1 -25 309 -671 322 -674
7 -1 99 38 203 87 105 49 192 88 193 86 7 -6 -93 -231 -163 -370 -329 -645
-843 -1215 -1453 -1609 -289 -187 -619 -345 -943 -451 -150 -49 -397 -115
-430 -115 -11 0 -22 -7 -26 -16 -3 -9 27 -178 67 -376 l74 -360 44 7 c80 12
352 84 510 136 733 239 1382 639 1932 1189 475 474 832 1014 1079 1629 38 95
71 174 73 177 3 2 68 -77 147 -176 78 -99 144 -180 147 -180 10 0 589 462 589
470 0 12 -761 973 -805 1017 -19 19 -64 49 -100 66 -82 40 -197 48 -275 19z"/>
</g>
</svg>
