<?xml version="1.0" standalone="no"?>
<!DOCTYPE svg PUBLIC "-//W3C//DTD SVG 20010904//EN"
 "http://www.w3.org/TR/2001/REC-SVG-20010904/DTD/svg10.dtd">
<svg version="1.0" xmlns="http://www.w3.org/2000/svg"
 width="1280.000000pt" height="1310.000000pt" viewBox="0 0 1280.000000 1310.000000"
 preserveAspectRatio="xMidYMid meet">
<metadata>
Created by potrace 1.16, written by Peter Selinger 2001-2019
</metadata>
<g transform="translate(0.000000,1310.000000) scale(0.100000,-0.100000)"
fill="#000000" stroke="none">
<path d="M3455 12542 c-144 -50 -234 -149 -264 -290 -16 -75 -16 -10538 0
-10614 25 -120 108 -225 217 -276 l57 -27 2935 0 2935 0 66 32 c81 40 140 102
182 191 l32 67 3 5295 c2 5882 9 5361 -66 5470 -47 70 -118 123 -199 149 l-63
21 -2893 0 c-2717 -1 -2895 -2 -2942 -18z m5832 -265 c18 -9 39 -31 48 -47 13
-26 15 -502 15 -4305 l0 -4275 -2950 0 -2950 0 0 4284 0 4285 23 26 c50 58
-146 54 2942 52 2694 -2 2842 -3 2872 -20z m63 -9727 c0 -939 3 -891 -63 -927
-30 -17 -176 -18 -2887 -18 -2711 0 -2857 1 -2887 18 -66 36 -63 -12 -63 927
l0 850 2950 0 2950 0 0 -850z"/>
<path d="M5043 11890 c-18 -4 -40 -13 -49 -20 -44 -37 -56 -116 -28 -175 32
-69 -33 -65 1143 -65 1149 0 1110 -2 1146 53 21 33 22 120 1 152 -9 14 -28 33
-43 42 -25 17 -93 18 -1083 20 -580 0 -1070 -2 -1087 -7z"/>
<path d="M7505 11894 c-79 -20 -108 -57 -109 -135 0 -102 48 -129 231 -129
143 0 178 12 208 69 31 62 8 152 -47 182 -23 13 -243 23 -283 13z"/>
<path d="M5755 10255 c-22 -8 -41 -15 -42 -15 -1 0 -215 -230 -475 -512 l-472
-511 99 -94 99 -93 35 34 c20 20 182 192 361 384 l325 348 3 -1148 2 -1148
135 0 135 0 2 1153 3 1153 350 -388 c193 -213 352 -388 355 -387 3 0 49 41
102 92 l98 92 -466 505 c-256 278 -478 513 -493 522 -40 25 -108 31 -156 13z"/>
<path d="M6858 6838 l-3 -1152 -360 386 c-303 324 -363 383 -376 374 -9 -6
-55 -48 -102 -93 l-87 -82 471 -510 c402 -435 478 -513 515 -527 53 -20 125
-15 163 13 28 21 950 1014 951 1024 0 4 -44 48 -99 98 l-98 91 -354 -392 -354
-392 -3 1157 -2 1157 -130 0 -130 0 -2 -1152z"/>
<path d="M6320 3070 c-318 -44 -542 -359 -476 -670 24 -113 77 -211 156 -291
321 -320 862 -156 956 291 79 374 -252 724 -636 670z m199 -300 c66 -29 140
-109 165 -179 66 -186 -84 -395 -284 -395 -155 0 -285 123 -298 280 -6 83 17
149 75 214 95 106 216 134 342 80z"/>
</g>
</svg>
