<?xml version="1.0" standalone="no"?>
<!DOCTYPE svg PUBLIC "-//W3C//DTD SVG 20010904//EN"
 "http://www.w3.org/TR/2001/REC-SVG-20010904/DTD/svg10.dtd">
<svg version="1.0" xmlns="http://www.w3.org/2000/svg"
 width="1280.000000pt" height="1295.000000pt" viewBox="0 0 1280.000000 1295.000000"
 preserveAspectRatio="xMidYMid meet">
<metadata>
Created by potrace 1.16, written by Peter Selinger 2001-2019
</metadata>
<g transform="translate(0.000000,1295.000000) scale(0.100000,-0.100000)"
fill="#000000" stroke="none">
<path d="M6346 12794 c-510 -92 -921 -506 -1011 -1018 -20 -115 -20 -337 0
-452 90 -516 503 -929 1019 -1019 115 -20 337 -20 452 0 516 90 929 503 1019
1019 20 115 20 337 0 452 -91 517 -503 929 -1022 1019 -108 19 -350 18 -457
-1z m348 -354 c85 -29 132 -57 169 -101 61 -71 69 -99 79 -269 10 -154 10
-155 -15 -205 -14 -27 -42 -85 -62 -128 -66 -141 -168 -217 -290 -217 -130 0
-268 136 -320 313 -10 35 -22 57 -31 57 -18 0 -28 42 -19 83 3 17 10 86 14
153 6 99 12 130 34 175 14 29 32 61 39 69 26 31 89 72 130 86 55 18 199 9 272
-16z m-298 -1187 c113 -216 106 -213 102 -45 l-3 142 85 0 85 0 -3 -112 c-6
-195 -9 -195 91 -5 71 135 92 167 105 162 289 -110 425 -169 490 -211 28 -19
52 -38 52 -42 0 -4 -21 -43 -47 -87 -54 -94 -189 -232 -275 -283 -85 -50 -204
-99 -288 -118 -113 -26 -310 -23 -425 5 -231 56 -444 212 -564 413 l-42 71 32
33 c39 40 151 97 239 120 36 10 112 37 170 60 58 23 108 42 112 43 4 1 42 -65
84 -146z"/>
<path d="M4879 11470 c-1568 -482 -2838 -1690 -3397 -3230 -61 -169 -107 -318
-100 -326 4 -3 62 -10 130 -15 67 -5 155 -16 193 -25 134 -31 114 -44 164 108
293 893 852 1677 1616 2268 416 322 902 580 1410 748 110 36 202 67 204 69 2
1 -6 49 -18 105 -13 57 -25 156 -28 221 -7 139 8 133 -174 77z"/>
<path d="M8130 11371 c0 -44 -33 -180 -72 -299 -22 -67 -39 -124 -37 -126 2
-2 63 -27 134 -56 161 -64 434 -195 580 -280 992 -571 1741 -1458 2111 -2503
47 -132 50 -138 74 -134 14 3 78 14 143 26 66 11 152 21 193 21 56 0 76 4 80
14 14 37 -155 474 -291 751 -559 1139 -1519 2038 -2700 2530 -193 80 -215 86
-215 56z"/>
<path d="M6105 9824 c-428 -45 -777 -142 -1140 -318 -356 -173 -630 -370 -916
-662 -501 -512 -796 -1113 -906 -1849 -26 -173 -26 -717 0 -890 60 -396 155
-701 323 -1038 272 -542 716 -1020 1244 -1337 362 -218 765 -361 1220 -433
118 -19 177 -21 470 -21 299 0 351 2 480 22 711 111 1312 410 1814 901 277
272 476 543 640 868 168 337 263 642 323 1038 26 173 26 717 0 890 -98 652
-339 1193 -749 1680 -103 122 -331 344 -453 441 -471 373 -974 592 -1575 685
-110 17 -190 22 -435 24 -165 2 -318 1 -340 -1z m73 -1848 c-2 -1 -130 3 -285
8 -175 5 -283 13 -283 19 0 5 12 62 26 126 103 458 277 849 475 1065 l64 70 3
-644 c1 -354 1 -644 0 -644z m617 1079 c98 -149 210 -396 285 -630 35 -111
110 -383 110 -401 0 -8 -76 -13 -267 -18 -148 -4 -276 -10 -285 -12 -17 -5
-18 30 -18 633 l1 638 60 -65 c34 -36 85 -101 114 -145z m-1273 103 c-110
-199 -279 -656 -358 -965 -25 -97 -32 -113 -49 -113 -81 1 -446 72 -752 146
l-192 47 62 75 c260 316 651 613 1016 773 103 46 304 119 310 114 1 -2 -15
-37 -37 -77z m1948 -19 c209 -84 522 -268 720 -425 91 -72 368 -344 439 -431
l43 -53 -29 0 c-47 0 -493 -67 -733 -110 -124 -22 -230 -40 -235 -40 -6 0 -26
62 -44 138 -99 404 -232 772 -347 954 -13 21 -24 40 -24 42 0 5 80 -23 210
-75z m-3369 -1315 c316 -91 672 -167 888 -190 l63 -7 -6 -56 c-31 -278 -38
-367 -43 -578 l-6 -243 -286 -1 c-157 -1 -474 -4 -705 -8 l-419 -6 6 90 c16
240 99 569 212 840 37 88 95 215 100 215 1 0 89 -25 196 -56z m4884 -96 c76
-161 135 -328 179 -508 32 -131 74 -376 65 -384 -2 -2 -324 -12 -715 -22
l-712 -19 -4 165 c-3 91 -16 281 -29 422 -13 141 -21 259 -19 261 6 6 1118
214 1148 216 20 1 32 -16 87 -131z m-1660 -538 c16 -214 27 -392 24 -394 -2
-2 -163 -8 -357 -12 l-352 -9 0 388 0 387 143 1 c78 0 205 6 282 13 77 7 160
14 186 15 l45 1 29 -390z m-1580 355 c105 -8 245 -15 313 -15 l122 0 0 -378 0
-379 -262 -6 c-145 -4 -310 -7 -367 -7 l-104 0 6 218 c3 119 15 296 26 392 12
96 21 178 21 182 0 11 26 10 245 -7z m3465 -1227 c-1 -128 -60 -418 -126 -618
-41 -123 -127 -333 -144 -353 -5 -5 -86 10 -182 32 -215 51 -618 130 -842 167
l-168 27 7 56 c30 244 36 321 42 508 l6 213 356 3 c196 1 512 3 704 5 l347 2
0 -42z m-1883 -180 c-3 -112 -11 -274 -18 -360 l-13 -158 -25 0 c-14 0 -102 7
-196 15 -93 8 -234 15 -312 15 l-143 0 0 340 0 340 183 3 c100 1 260 3 356 5
l174 2 -6 -202z m-1167 -143 l0 -325 -122 0 c-68 0 -208 -7 -313 -15 -104 -8
-202 -15 -217 -15 l-28 0 0 118 c0 64 -5 171 -10 237 -5 66 -12 164 -16 217
l-7 98 179 3 c98 1 259 4 357 5 l177 2 0 -325z m-1157 93 c4 -106 16 -260 27
-343 11 -82 20 -155 20 -161 0 -6 -24 -15 -52 -18 -214 -28 -636 -123 -928
-208 -96 -28 -183 -53 -193 -55 -14 -4 -25 12 -56 78 -59 129 -107 263 -146
410 -33 128 -85 404 -85 455 l0 24 353 3 c193 1 510 3 703 5 l351 2 6 -192z
m1177 -1575 l-1 -698 -58 63 c-151 162 -299 449 -410 796 -41 129 -105 375
-117 452 l-6 41 78 13 c44 7 160 16 259 20 99 4 197 7 218 8 l37 2 0 -697z
m825 671 c110 -9 202 -18 204 -20 7 -6 -33 -181 -76 -339 -103 -380 -278 -740
-451 -925 l-61 -65 -1 685 0 685 92 -3 c51 -1 183 -9 293 -18z m-1861 -191
c80 -366 270 -891 393 -1086 13 -21 23 -40 21 -42 -5 -5 -268 96 -351 134
-181 84 -408 226 -577 362 -137 109 -323 296 -433 434 l-88 109 38 14 c56 20
361 98 498 127 133 29 393 73 441 74 l30 1 28 -127z m2790 71 c137 -24 539
-107 684 -142 l73 -17 -88 -110 c-272 -340 -647 -632 -1046 -812 -117 -52
-320 -127 -315 -115 1 4 37 77 79 162 139 281 213 497 297 863 l47 209 65 -7
c36 -4 128 -18 204 -31z"/>
<path d="M11146 7714 c-510 -92 -921 -506 -1011 -1018 -20 -115 -20 -337 0
-452 68 -386 318 -724 668 -900 187 -95 356 -134 577 -134 157 0 275 18 402
60 317 106 576 329 724 623 92 182 134 357 134 562 0 351 -139 676 -394 923
-182 176 -382 282 -625 332 -119 24 -352 26 -475 4z m328 -354 c117 -40 171
-83 218 -173 18 -35 22 -57 21 -127 -1 -47 -1 -122 -2 -168 0 -52 -5 -92 -14
-110 -8 -15 -27 -58 -42 -95 -98 -242 -253 -338 -420 -258 -107 50 -184 155
-226 308 -24 86 -26 139 -11 319 13 161 36 211 124 278 59 44 110 57 211 50
49 -3 112 -14 141 -24z m-289 -1205 c48 -91 92 -165 98 -165 10 0 4 219 -8
258 -7 22 -6 22 71 22 l79 0 -3 -112 c-6 -195 -9 -195 91 -5 71 135 92 167
105 162 289 -110 425 -169 490 -211 28 -19 52 -36 52 -38 0 -13 -37 -89 -67
-135 -107 -170 -312 -309 -525 -358 -110 -25 -309 -22 -423 6 -231 56 -444
212 -564 414 l-43 71 38 33 c49 41 183 108 249 124 28 7 97 31 155 55 58 23
108 42 112 43 3 1 46 -73 93 -164z"/>
<path d="M1186 7594 c-510 -92 -921 -506 -1011 -1018 -20 -115 -20 -337 0
-452 68 -386 318 -724 668 -900 187 -95 356 -134 577 -134 221 0 390 39 577
134 350 176 600 514 668 900 20 115 20 337 0 452 -91 517 -503 929 -1022 1019
-108 19 -350 18 -457 -1z m350 -354 c141 -49 221 -115 243 -199 6 -20 15 -101
22 -180 10 -127 10 -148 -4 -175 -8 -17 -27 -64 -42 -104 -108 -292 -346 -371
-526 -174 -28 30 -61 76 -74 103 -51 101 -82 266 -61 327 6 17 5 22 -7 22 -36
0 -33 167 3 245 32 69 99 127 172 151 56 18 199 9 274 -16z m-300 -1187 c113
-216 106 -213 102 -45 l-3 142 85 0 85 0 -3 -112 c-6 -195 -9 -195 91 -5 71
135 92 167 105 162 326 -124 492 -197 546 -239 18 -15 17 -18 -29 -95 -128
-211 -335 -364 -570 -423 -125 -30 -313 -30 -440 1 -231 56 -444 212 -564 413
l-42 71 28 29 c42 45 119 84 234 122 57 18 145 54 194 79 50 25 93 46 97 46 4
1 42 -65 84 -146z"/>
<path d="M10855 4883 c-112 -321 -291 -678 -493 -988 -194 -298 -373 -517
-642 -785 -202 -203 -342 -325 -540 -472 -383 -284 -837 -524 -1278 -675 -94
-32 -88 -17 -58 -148 9 -38 21 -130 26 -204 5 -73 12 -136 15 -140 10 -9 324
101 504 176 1296 540 2320 1578 2838 2878 68 171 133 356 133 380 0 7 -40 17
-97 24 -54 7 -153 23 -220 37 -67 13 -129 24 -136 24 -9 0 -28 -40 -52 -107z"/>
<path d="M1840 4854 c-72 -22 -247 -54 -300 -54 -27 0 -52 -5 -55 -10 -15 -25
114 -348 250 -625 511 -1039 1355 -1876 2400 -2381 165 -80 430 -189 569 -234
51 -17 70 -19 76 -11 4 7 10 67 13 134 4 67 16 162 27 211 11 50 20 95 20 102
0 6 -41 26 -91 43 -311 109 -663 287 -979 496 -794 525 -1434 1309 -1780 2183
-72 179 -66 173 -150 146z"/>
<path d="M6086 2794 c-510 -92 -921 -506 -1011 -1018 -20 -115 -20 -337 0
-452 90 -516 503 -929 1019 -1019 115 -20 337 -20 452 0 516 90 929 503 1019
1019 20 115 20 337 0 452 -91 517 -503 929 -1022 1019 -108 19 -350 18 -457
-1z m328 -354 c117 -40 172 -83 218 -173 18 -35 23 -69 30 -210 8 -146 7 -172
-6 -192 -9 -14 -16 -30 -16 -37 0 -7 -20 -53 -45 -104 -52 -108 -129 -198
-193 -225 -104 -45 -221 -12 -313 89 -59 65 -91 125 -118 220 -11 39 -27 86
-36 106 -11 24 -15 46 -10 64 4 15 10 84 15 153 10 164 31 214 122 283 59 44
110 57 211 50 49 -3 112 -14 141 -24z m-298 -1187 c113 -216 106 -213 102 -45
l-3 142 85 0 85 0 -3 -112 c-6 -195 -9 -195 91 -5 71 135 92 167 105 162 289
-110 425 -169 490 -211 28 -19 52 -37 52 -40 0 -2 -10 -24 -21 -47 -110 -216
-314 -374 -564 -438 -125 -32 -321 -32 -450 0 -231 56 -444 212 -564 413 l-42
71 32 33 c39 40 151 97 239 120 36 10 112 37 170 60 58 23 108 42 112 43 4 1
42 -65 84 -146z"/>
</g>
</svg>
