<?xml version="1.0" standalone="no"?>
<!DOCTYPE svg PUBLIC "-//W3C//DTD SVG 20010904//EN"
 "http://www.w3.org/TR/2001/REC-SVG-20010904/DTD/svg10.dtd">
<svg version="1.0" xmlns="http://www.w3.org/2000/svg"
 width="1280.000000pt" height="1120.000000pt" viewBox="0 0 1280.000000 1120.000000"
 preserveAspectRatio="xMidYMid meet">
<metadata>
Created by potrace 1.16, written by Peter Selinger 2001-2019
</metadata>
<g transform="translate(0.000000,1120.000000) scale(0.100000,-0.100000)"
fill="#000000" stroke="none">
<path d="M6120 10669 c-637 -56 -1229 -289 -1740 -685 -138 -107 -415 -381
-525 -519 -644 -807 -873 -1859 -625 -2863 39 -160 99 -349 149 -470 40 -100
2829 -5511 2860 -5551 39 -50 73 -72 122 -81 65 -12 134 10 179 56 28 29 387
717 1446 2774 775 1504 1425 2773 1445 2820 106 247 183 557 221 885 16 145
16 579 -1 720 -51 427 -160 789 -349 1159 -87 170 -238 403 -361 556 -111 138
-358 384 -496 494 -511 408 -1117 649 -1780 705 -138 12 -406 12 -545 0z m658
-628 c392 -59 779 -209 1092 -421 188 -128 410 -329 562 -510 173 -205 357
-525 453 -784 45 -123 108 -366 130 -506 23 -140 31 -515 16 -663 -109 -1023
-802 -1894 -1775 -2233 -453 -158 -955 -185 -1434 -78 -387 86 -775 275 -1088
529 -106 86 -297 279 -387 390 -265 329 -454 725 -537 1129 -68 331 -68 742 1
1065 68 322 198 634 377 906 103 157 181 255 316 394 460 473 1028 741 1706
805 106 10 439 -4 568 -23z"/>
<path d="M6330 9103 c-267 -34 -485 -210 -567 -457 -23 -71 -27 -97 -27 -211
0 -117 3 -138 28 -210 59 -171 176 -308 327 -383 112 -56 181 -72 309 -72 127
0 197 16 307 71 152 76 267 209 327 378 28 79 30 96 30 216 0 114 -4 140 -27
211 -57 170 -180 311 -342 389 -49 24 -112 48 -140 53 -64 13 -180 21 -225 15z"/>
<path d="M5575 7521 c-82 -24 -127 -44 -182 -83 -123 -84 -213 -202 -260 -342
l-28 -81 -3 -681 -3 -681 108 -70 c366 -238 741 -347 1193 -347 227 0 353 14
551 64 221 55 469 165 662 294 l88 59 -4 681 c-3 756 0 720 -72 862 -62 122
-162 219 -293 284 -122 60 -114 60 -942 59 -691 0 -760 -2 -815 -18z"/>
</g>
</svg>
