<?xml version="1.0" standalone="no"?>
<!DOCTYPE svg PUBLIC "-//W3C//DTD SVG 20010904//EN"
 "http://www.w3.org/TR/2001/REC-SVG-20010904/DTD/svg10.dtd">
<svg version="1.0" xmlns="http://www.w3.org/2000/svg"
 width="1280.000000pt" height="1325.000000pt" viewBox="0 0 1280.000000 1325.000000"
 preserveAspectRatio="xMidYMid meet">
<metadata>
Created by potrace 1.16, written by Peter Selinger 2001-2019
</metadata>
<g transform="translate(0.000000,1325.000000) scale(0.100000,-0.100000)"
fill="#000000" stroke="none">
<path d="M2905 13234 c-44 -23 -2863 -2842 -2886 -2886 -19 -37 -19 -112 -19
-4899 l0 -4862 25 -43 c15 -26 43 -54 69 -69 l43 -25 3476 2 3475 3 39 31 c50
39 83 105 83 164 -1 80 -55 164 -123 189 -20 8 -1030 11 -3358 11 l-3329 0 0
4600 0 4600 1332 0 1331 0 43 25 c26 15 54 43 69 69 l25 43 0 1331 0 1332
2600 0 2600 0 0 -2132 0 -2131 25 -43 c37 -63 95 -94 175 -94 80 0 138 31 175
94 l25 43 0 2263 0 2263 -25 43 c-15 26 -43 54 -69 69 l-43 25 -2864 0 c-2575
-1 -2867 -2 -2894 -16z m-105 -1734 l0 -1050 -1052 0 -1053 0 1050 1050 c577
578 1051 1050 1052 1050 2 0 3 -472 3 -1050z"/>
<path d="M4093 11224 c-62 -37 -93 -95 -93 -174 0 -80 31 -138 94 -175 l43
-25 1663 0 1663 0 43 25 c63 37 94 95 94 175 0 80 -31 138 -94 175 l-43 25
-1664 0 -1664 0 -42 -26z"/>
<path d="M1293 9224 c-24 -14 -54 -44 -68 -68 l-25 -43 0 -863 0 -863 25 -43
c15 -26 43 -54 69 -69 l43 -25 863 0 863 0 43 25 c26 15 54 43 69 69 l25 43 0
863 0 863 -25 43 c-15 26 -43 54 -69 69 l-43 25 -864 0 -864 0 -42 -26z m1507
-974 l0 -600 -600 0 -600 0 0 600 0 600 600 0 600 0 0 -600z"/>
<path d="M4093 8424 c-62 -37 -93 -95 -93 -174 0 -80 31 -138 94 -175 l43 -25
1663 0 1663 0 43 25 c63 37 94 95 94 175 0 80 -31 138 -94 175 l-43 25 -1664
0 -1664 0 -42 -26z"/>
<path d="M8493 8024 c-62 -37 -93 -95 -93 -174 0 -80 31 -138 94 -175 l43 -25
331 0 332 0 0 -200 c0 -153 -3 -200 -12 -200 -46 0 -313 -33 -408 -50 -1215
-218 -2225 -1088 -2619 -2256 -117 -348 -167 -631 -178 -1005 -11 -414 38
-763 159 -1139 351 -1083 1201 -1910 2292 -2229 579 -170 1207 -180 1798 -31
866 220 1616 779 2080 1550 256 426 409 884 469 1405 19 164 17 559 -5 735
-92 767 -415 1448 -943 1991 l-122 125 115 140 c64 76 138 165 166 196 l49 58
107 -87 c128 -103 157 -117 234 -111 177 13 250 225 120 350 -20 20 -197 167
-392 327 -232 191 -366 295 -390 301 -107 30 -204 -12 -247 -108 -19 -41 -24
-65 -21 -100 8 -81 32 -114 154 -215 l114 -95 -160 -196 -160 -195 -133 87
c-326 214 -671 364 -1045 456 -148 37 -343 71 -457 81 -38 3 -91 8 -117 11
l-48 6 0 199 0 199 332 0 331 0 43 25 c63 37 94 95 94 175 0 80 -31 138 -94
175 l-43 25 -864 0 -864 0 -42 -26z m1242 -1200 c983 -106 1871 -718 2323
-1601 175 -343 273 -663 317 -1043 19 -163 19 -498 0 -665 -78 -679 -377
-1297 -860 -1780 -422 -422 -958 -709 -1540 -824 -362 -71 -796 -70 -1160 4
-270 54 -480 127 -740 255 -573 282 -1035 732 -1325 1292 -235 453 -340 882
-340 1388 0 304 34 547 114 827 107 373 303 748 551 1058 102 128 312 338 440
440 234 188 581 386 839 480 451 165 904 220 1381 169z"/>
<path d="M9340 6239 c-50 -15 -97 -54 -120 -99 -19 -38 -20 -60 -20 -877 l0
-838 -78 -40 c-111 -57 -207 -155 -260 -266 -48 -99 -62 -162 -62 -269 0 -107
14 -170 62 -269 53 -111 149 -209 260 -266 l78 -40 0 -94 c0 -83 3 -100 25
-137 37 -63 95 -94 175 -94 80 0 138 31 175 94 22 37 25 54 25 137 l0 94 78
40 c111 57 207 155 260 266 48 99 62 162 62 269 0 107 -14 170 -62 269 -53
111 -149 209 -260 266 l-78 40 0 838 c0 802 -1 839 -19 875 -10 20 -27 44 -37
53 -53 46 -140 67 -204 48z m156 -2224 c130 -76 125 -268 -8 -336 -162 -83
-342 97 -259 259 50 98 172 133 267 77z"/>
<path d="M1293 6424 c-24 -14 -54 -44 -68 -68 l-25 -43 0 -863 0 -863 25 -43
c15 -26 43 -54 69 -69 l43 -25 863 0 863 0 43 25 c26 15 54 43 69 69 l25 43 0
863 0 863 -25 43 c-15 26 -43 54 -69 69 l-43 25 -864 0 -864 0 -42 -26z m1507
-974 l0 -600 -600 0 -600 0 0 600 0 600 600 0 600 0 0 -600z"/>
<path d="M4093 5624 c-62 -37 -93 -95 -93 -174 0 -80 31 -138 94 -175 l43 -25
863 0 863 0 43 25 c63 37 94 95 94 175 0 80 -31 138 -94 175 l-43 25 -864 0
-864 0 -42 -26z"/>
<path d="M1293 3624 c-24 -14 -54 -44 -68 -68 l-25 -43 0 -863 0 -863 25 -43
c15 -26 43 -54 69 -69 l43 -25 863 0 863 0 43 25 c26 15 54 43 69 69 l25 43 0
863 0 863 -25 43 c-15 26 -43 54 -69 69 l-43 25 -864 0 -864 0 -42 -26z m1507
-974 l0 -600 -600 0 -600 0 0 600 0 600 600 0 600 0 0 -600z"/>
<path d="M4093 2824 c-62 -37 -93 -95 -93 -174 0 -80 31 -138 94 -175 l43 -25
763 0 763 0 43 25 c63 37 94 95 94 175 0 80 -31 138 -94 175 l-43 25 -764 0
-764 0 -42 -26z"/>
</g>
</svg>
