<?xml version="1.0" standalone="no"?>
<!DOCTYPE svg PUBLIC "-//W3C//DTD SVG 20010904//EN"
 "http://www.w3.org/TR/2001/REC-SVG-20010904/DTD/svg10.dtd">
<svg version="1.0" xmlns="http://www.w3.org/2000/svg"
 width="1280.000000pt" height="1340.000000pt" viewBox="0 0 1280.000000 1340.000000"
 preserveAspectRatio="xMidYMid meet">
<metadata>
Created by potrace 1.16, written by Peter Selinger 2001-2019
</metadata>
<g transform="translate(0.000000,1340.000000) scale(0.100000,-0.100000)"
fill="#000000" stroke="none">
<path d="M12090 13370 c-979 -42 -1936 -192 -2718 -426 -668 -199 -1219 -481
-1662 -849 -63 -52 -119 -95 -125 -95 -5 0 -534 -524 -1175 -1165 l-1165
-1164 -1180 -110 c-1278 -120 -1271 -119 -1436 -194 -196 -89 -152 -48 -1413
-1306 -945 -944 -1173 -1176 -1192 -1216 -68 -143 13 -327 164 -371 64 -19
-57 -28 1279 100 l753 72 -105 -106 c-121 -124 -145 -165 -145 -260 0 -100 22
-135 175 -290 l135 -136 -86 -64 c-499 -369 -1018 -1187 -1441 -2268 -95 -245
-97 -330 -9 -450 53 -72 108 -102 185 -102 29 0 65 6 79 14 32 16 192 75 192
70 0 -2 -26 -43 -57 -91 -321 -498 -623 -1027 -1019 -1788 -98 -188 -99 -191
-99 -260 1 -52 6 -80 22 -111 29 -55 111 -127 161 -142 54 -17 148 -15 180 3
15 8 88 43 163 78 431 203 1198 641 1723 984 87 57 160 102 162 100 5 -5 -28
-99 -55 -157 -24 -52 -28 -149 -9 -214 16 -55 99 -138 154 -154 56 -16 135
-15 160 2 11 8 70 33 130 56 361 137 931 406 1229 580 277 162 534 341 720
501 119 102 306 295 379 392 l59 78 141 -139 c162 -160 193 -177 298 -170 89
6 129 29 246 142 56 54 102 93 102 86 0 -7 -40 -435 -90 -951 -49 -515 -90
-956 -90 -978 0 -49 29 -130 64 -175 14 -18 49 -48 78 -67 48 -31 59 -34 128
-34 58 0 84 5 115 22 49 27 2379 2357 2425 2426 75 112 145 283 170 414 6 32
60 582 119 1222 l109 1164 1171 1171 c644 644 1171 1177 1171 1185 0 7 24 41
53 75 242 277 456 639 716 1209 326 716 518 1450 637 2447 26 212 28 256 31
750 l4 525 -29 40 c-15 22 -53 53 -83 70 -54 30 -55 30 -229 31 -96 1 -263 -2
-370 -6z m195 -632 c-2 -40 -10 -152 -15 -248 -64 -1051 -252 -2057 -517
-2765 -164 -438 -358 -795 -579 -1071 -72 -90 -5449 -5449 -5467 -5449 -5 0
-701 686 -1548 1525 l-1539 1525 2703 2701 c1486 1486 2740 2732 2787 2769
281 224 698 445 1105 585 780 269 1772 431 3048 499 l28 1 -6 -72z m-8525
-4633 l-915 -914 -870 -75 c-478 -42 -888 -77 -909 -80 -38 -4 -4 31 810 846
467 467 875 870 907 893 31 24 80 51 107 60 34 11 332 44 898 100 466 45 856
83 867 84 13 1 -316 -335 -895 -914z m-801 -3116 c-301 -205 -660 -538 -972
-904 -127 -149 -129 -151 -262 -231 -114 -70 -258 -135 -270 -122 -2 2 45 100
104 218 364 729 743 1234 1076 1434 l59 36 183 -182 182 -182 -100 -67z m5490
-604 c-43 -445 -83 -841 -88 -880 -7 -42 -26 -100 -47 -145 -35 -73 -65 -104
-902 -942 -476 -477 -867 -866 -869 -865 -1 2 33 412 77 912 l79 909 912 912
c502 502 914 912 915 911 0 -1 -34 -366 -77 -812z m-4664 -86 l230 -231 -29
-21 c-333 -247 -675 -667 -958 -1178 l-73 -131 -105 -75 c-385 -274 -1137
-751 -1685 -1068 -93 -54 -181 -105 -195 -114 -21 -14 -17 -2 30 84 308 573
695 1180 1077 1690 l165 220 108 58 c459 249 911 618 1149 938 24 32 46 59 50
59 3 0 110 -104 236 -231z m1046 -1108 c-162 -273 -503 -570 -985 -859 -135
-80 -493 -264 -604 -310 l-53 -21 7 22 c3 12 49 110 101 217 l94 195 142 120
c359 304 738 713 925 1001 l47 72 184 -183 184 -183 -42 -71z"/>
<path d="M9106 11255 c-316 -52 -562 -180 -783 -408 -334 -345 -457 -827 -334
-1310 100 -389 352 -699 716 -877 223 -110 399 -145 679 -137 251 7 382 39
591 142 258 128 493 367 614 626 91 195 121 327 128 565 8 280 -27 456 -136
679 -129 263 -332 471 -579 594 -84 42 -224 88 -341 112 -130 27 -430 34 -555
14z m494 -505 c170 -49 307 -149 436 -319 78 -103 156 -259 180 -358 24 -103
16 -319 -16 -418 -48 -152 -122 -262 -253 -376 -160 -139 -330 -206 -547 -216
-376 -17 -697 182 -846 526 -52 119 -67 202 -62 344 6 138 25 213 90 342 123
247 354 431 613 489 99 22 303 15 405 -14z"/>
</g>
</svg>
