<?xml version="1.0" standalone="no"?>
<!DOCTYPE svg PUBLIC "-//W3C//DTD SVG 20010904//EN"
 "http://www.w3.org/TR/2001/REC-SVG-20010904/DTD/svg10.dtd">
<svg version="1.0" xmlns="http://www.w3.org/2000/svg"
 width="1280.000000pt" height="1335.000000pt" viewBox="0 0 1280.000000 1335.000000"
 preserveAspectRatio="xMidYMid meet">
<metadata>
Created by potrace 1.16, written by Peter Selinger 2001-2019
</metadata>
<g transform="translate(0.000000,1335.000000) scale(0.100000,-0.100000)"
fill="#000000" stroke="none">
<path d="M5871 13149 c-181 -35 -334 -121 -467 -262 -169 -177 -244 -386 -231
-645 7 -144 24 -208 87 -337 86 -174 222 -310 395 -394 82 -40 216 -81 267
-81 l28 0 0 -218 0 -217 -147 -29 c-170 -32 -454 -108 -628 -167 -410 -139
-881 -371 -1235 -609 -337 -227 -796 -626 -865 -751 -40 -74 -47 -188 -16
-270 29 -75 88 -141 159 -176 49 -24 69 -28 142 -28 124 0 167 23 321 173 353
342 714 597 1153 813 442 218 862 348 1366 424 95 14 193 34 216 44 64 29 128
93 158 160 l26 60 -2 603 -3 603 -24 49 c-31 63 -90 122 -150 149 -41 19 -70
22 -266 27 -186 5 -225 9 -255 24 -49 26 -88 64 -112 110 -29 57 -22 156 15
210 34 51 97 93 150 101 23 3 431 5 907 3 l865 -3 48 -28 c126 -74 150 -242
50 -339 -72 -69 -84 -71 -328 -78 -173 -4 -228 -9 -257 -22 -53 -24 -126 -94
-156 -153 l-27 -50 -3 -596 c-3 -582 -2 -598 18 -652 11 -30 39 -75 61 -100
62 -71 118 -93 314 -121 757 -110 1413 -374 2032 -818 116 -83 162 -101 253
-102 137 0 148 9 515 373 176 176 336 327 355 336 19 10 57 18 86 18 163 0
270 -172 198 -317 -9 -17 -157 -173 -329 -346 -355 -358 -350 -351 -350 -500
1 -104 17 -140 134 -284 413 -511 712 -1114 871 -1756 134 -546 165 -1137 89
-1690 -159 -1144 -749 -2186 -1645 -2904 -721 -578 -1570 -913 -2498 -987
-191 -15 -655 -6 -831 15 -573 72 -1047 215 -1545 467 -445 225 -798 484
-1174 862 -209 210 -241 230 -366 231 -122 1 -227 -59 -283 -162 -55 -101 -55
-226 0 -322 34 -59 323 -352 488 -494 742 -642 1641 -1056 2605 -1201 327 -49
788 -68 1120 -46 1099 74 2133 491 2985 1202 149 125 441 415 580 576 710 825
1127 1812 1236 2928 17 172 18 701 1 880 -63 675 -226 1257 -517 1850 -133
272 -310 565 -463 770 l-30 40 157 160 c296 303 360 396 418 606 25 90 24 337
-1 429 -44 161 -130 304 -250 418 -92 88 -197 150 -324 192 -85 29 -113 34
-232 38 -155 5 -244 -9 -366 -58 -136 -54 -204 -108 -445 -347 l-226 -224 -84
54 c-323 210 -752 415 -1149 547 -212 70 -522 150 -722 184 l-38 7 0 214 0
215 28 0 c52 0 185 40 266 79 376 182 567 602 461 1016 -36 140 -159 337 -268
427 -116 96 -254 164 -389 192 -67 14 -192 16 -980 15 -497 -1 -923 -5 -947
-10z"/>
<path d="M6572 9710 c-671 -49 -1308 -267 -1861 -635 -275 -184 -598 -468
-642 -568 -32 -72 -34 -201 -3 -268 30 -64 88 -125 148 -157 45 -24 62 -27
151 -27 126 0 147 10 294 146 638 589 1438 894 2271 866 817 -28 1566 -352
2140 -927 509 -508 824 -1160 911 -1885 18 -143 18 -557 0 -700 -87 -726 -399
-1373 -906 -1880 -414 -414 -893 -690 -1455 -836 -445 -116 -945 -129 -1399
-38 -590 118 -1116 391 -1574 817 -123 116 -176 142 -282 142 -177 0 -312
-126 -323 -303 -3 -57 1 -84 18 -132 19 -52 38 -76 144 -181 314 -312 750
-596 1186 -772 333 -134 681 -222 1050 -263 151 -17 629 -17 780 0 1120 126
2088 692 2726 1591 793 1119 921 2595 334 3836 -82 173 -158 307 -276 484
-623 938 -1622 1547 -2749 1675 -167 19 -526 27 -683 15z"/>
<path d="M1057 7859 c-92 -22 -175 -88 -218 -175 -20 -41 -24 -64 -24 -144 0
-84 3 -101 27 -145 32 -60 87 -114 148 -146 l45 -24 1184 -3 c1318 -3 1241 -6
1336 66 36 27 60 57 85 106 32 62 35 77 35 150 0 68 -5 90 -28 137 -32 66 -99
132 -165 162 l-47 22 -1170 2 c-662 1 -1186 -3 -1208 -8z"/>
<path d="M8297 7770 c-87 -22 -123 -54 -548 -477 l-426 -425 -39 20 c-49 24
-180 67 -259 84 -76 16 -321 16 -400 -1 -429 -89 -745 -387 -856 -808 -33
-123 -37 -338 -9 -472 91 -442 424 -773 863 -856 103 -20 302 -19 407 1 377
71 692 342 818 705 89 254 78 561 -27 794 l-32 69 429 430 c487 489 477 476
477 616 0 100 -27 170 -91 234 -74 74 -207 111 -307 86z m-1378 -1445 c210
-50 356 -246 338 -454 -10 -119 -71 -232 -166 -307 -86 -67 -147 -88 -266 -88
-95 -1 -104 1 -178 36 -136 65 -226 186 -249 335 -33 215 121 431 342 479 75
17 104 16 179 -1z"/>
<path d="M1842 6310 c-248 -50 -344 -368 -165 -547 22 -22 62 -50 89 -64 l49
-24 1190 -3 c1367 -3 1248 -11 1351 92 71 72 94 126 94 227 0 133 -68 241
-188 297 l-57 27 -1160 2 c-638 0 -1179 -3 -1203 -7z"/>
<path d="M1040 4751 c-131 -40 -219 -151 -228 -288 -11 -173 98 -315 266 -342
48 -8 396 -11 1207 -9 l1140 3 62 29 c122 56 187 156 188 291 0 71 -4 88 -33
147 -39 79 -93 129 -169 158 -53 20 -76 20 -1231 19 -647 0 -1188 -4 -1202 -8z"/>
</g>
</svg>
