<?xml version="1.0" standalone="no"?>
<!DOCTYPE svg PUBLIC "-//W3C//DTD SVG 20010904//EN"
 "http://www.w3.org/TR/2001/REC-SVG-20010904/DTD/svg10.dtd">
<svg version="1.0" xmlns="http://www.w3.org/2000/svg"
 width="1252.000000pt" height="1373.000000pt" viewBox="0 0 1252.000000 1373.000000"
 preserveAspectRatio="xMidYMid meet">
<metadata>
Created by potrace 1.16, written by Peter Selinger 2001-2019
</metadata>
<g transform="translate(0.000000,1373.000000) scale(0.100000,-0.100000)"
fill="#000000" stroke="none">
<path d="M5096 13666 c-113 -113 -176 -282 -163 -435 19 -220 160 -407 364
-484 52 -19 81 -22 286 -25 l227 -3 0 -124 0 -124 -32 -5 c-18 -3 -100 -15
-183 -26 -207 -28 -501 -88 -546 -111 -145 -73 -157 -288 -22 -383 63 -44 125
-45 315 -7 270 54 459 77 845 105 l72 5 3 -259 3 -258 30 -44 c36 -52 120 -98
178 -98 90 0 169 46 210 123 21 40 22 56 25 287 l3 245 117 -7 c686 -44 1425
-245 2045 -555 l128 -64 -19 -32 c-11 -18 -64 -108 -118 -202 l-99 -170 0 -81
c0 -71 3 -85 27 -122 52 -78 162 -118 258 -92 68 18 114 74 234 283 l108 187
36 -22 c21 -12 89 -57 152 -101 492 -343 922 -758 1283 -1242 100 -134 227
-320 227 -333 0 -4 -82 -55 -182 -113 -100 -57 -197 -117 -216 -133 -49 -43
-73 -97 -73 -167 -1 -103 53 -181 148 -215 89 -31 123 -20 364 119 l196 114
28 -56 c281 -568 457 -1123 544 -1721 20 -135 51 -452 51 -522 l0 -37 -257 -3
-258 -3 -38 -27 c-52 -35 -87 -90 -96 -146 -16 -106 27 -197 114 -241 48 -25
54 -26 293 -29 l244 -4 -6 -101 c-51 -747 -223 -1401 -551 -2085 l-67 -140
-205 118 c-226 130 -261 142 -346 116 -103 -31 -159 -107 -158 -215 0 -70 24
-124 73 -167 18 -16 115 -76 216 -134 100 -57 182 -108 182 -113 0 -13 -155
-238 -256 -372 -272 -363 -645 -740 -1014 -1026 -151 -117 -412 -299 -424
-296 -5 2 -58 88 -117 192 -70 121 -124 203 -149 226 -104 95 -269 69 -341
-54 -27 -47 -30 -59 -27 -122 3 -69 5 -73 120 -272 l117 -202 -56 -30 c-93
-51 -306 -148 -451 -207 -497 -202 -1140 -352 -1627 -379 -60 -3 -120 -8 -132
-11 l-21 -4 -4 248 c-3 218 -5 251 -22 282 -45 85 -109 124 -206 125 -81 0
-140 -30 -185 -93 l-30 -44 -3 -259 -3 -260 -87 6 c-327 22 -580 54 -836 106
-181 37 -244 36 -305 -4 -77 -51 -117 -160 -91 -251 15 -54 66 -117 112 -139
74 -35 479 -107 813 -144 226 -25 926 -25 1160 0 979 106 1831 402 2630 913
560 358 1084 836 1495 1364 1070 1375 1483 3132 1139 4845 -202 1006 -679
1967 -1363 2744 l-108 123 231 232 231 231 153 -153 c84 -83 157 -152 162
-152 6 0 216 206 468 458 356 356 458 464 455 480 -3 23 -903 942 -921 942 -7
0 -224 -211 -482 -470 l-470 -470 158 -158 157 -157 -233 -233 c-214 -214
-235 -232 -248 -216 -31 38 -312 272 -454 379 -833 624 -1750 1000 -2792 1146
l-83 11 0 128 0 129 228 3 c206 3 233 5 287 26 379 142 487 626 204 915 l-66
67 -1322 0 -1321 0 -64 -64z"/>
<path d="M3285 10946 c-155 -39 -284 -164 -325 -315 -6 -25 -12 -81 -11 -126
0 -86 22 -165 66 -235 36 -57 121 -129 193 -163 l67 -32 670 0 670 0 66 32
c201 99 299 307 244 518 -43 164 -181 294 -344 325 -82 15 -1232 12 -1296 -4z"/>
<path d="M2140 9387 c-117 -40 -205 -119 -256 -232 -95 -207 -25 -441 169
-566 112 -73 60 -70 1372 -67 l1170 3 57 23 c166 67 273 214 285 392 13 186
-82 348 -256 433 l-66 32 -1205 2 -1205 3 -65 -23z"/>
<path d="M9029 8947 c-74 -38 -2910 -2095 -2972 -2156 -163 -158 -239 -338
-239 -566 0 -144 22 -240 82 -360 240 -478 890 -581 1265 -201 58 59 2130
2913 2167 2986 24 46 23 142 -1 195 -52 111 -192 159 -302 102z"/>
<path d="M1090 7859 c-71 -14 -166 -66 -222 -122 -112 -112 -156 -290 -110
-443 38 -125 120 -220 242 -278 l65 -31 1775 0 1775 0 65 31 c285 135 349 502
126 724 -58 58 -146 105 -225 120 -68 13 -3426 12 -3491 -1z"/>
<path d="M175 6306 c-51 -16 -101 -42 -142 -73 l-33 -24 0 -333 0 -332 28 -21
c51 -37 127 -71 187 -83 44 -8 634 -10 2220 -8 l2160 3 57 23 c166 67 273 214
285 392 13 186 -82 348 -256 433 l-66 32 -2200 2 c-1756 1 -2208 -1 -2240 -11z"/>
<path d="M1532 4769 c-112 -22 -240 -117 -295 -217 -126 -232 -37 -508 202
-625 l66 -32 1555 0 1555 0 65 31 c199 95 300 308 245 519 -43 164 -180 294
-345 325 -65 12 -2985 12 -3048 -1z"/>
<path d="M2825 3216 c-171 -55 -289 -190 -315 -362 -36 -237 120 -459 355
-504 43 -8 295 -10 895 -8 l835 3 57 23 c166 67 273 214 285 392 13 186 -82
348 -256 433 l-66 32 -875 2 c-689 2 -883 -1 -915 -11z"/>
</g>
</svg>
